<mxfile host="app.diagrams.net" modified="2023-12-13T07:36:25.744Z" agent="Mozilla/5.0 (Windows NT 10.0; Win64; x64) AppleWebKit/537.36 (KHTML, like Gecko) Chrome/119.0.0.0 Safari/537.36" etag="jRhdTPvKRCZRn93kA0_b" version="21.7.2" type="github">
  <diagram name="画布1" id="画布1">
    <mxGraphModel dx="1434" dy="758" grid="1" gridSize="10" guides="1" tooltips="1" connect="1" arrows="1" fold="1" page="1" pageScale="1" pageWidth="827" pageHeight="1169" math="0" shadow="0">
      <root>
        <mxCell id="0" />
        <mxCell id="1" parent="0" />
        <UserObject label="" tags="背景" id="2">
          <mxCell style="vsdxID=1;fillColor=none;gradientColor=none;points=[];labelBackgroundColor=none;rounded=0;strokeColor=none;html=1;whiteSpace=wrap;" parent="1" vertex="1">
            <mxGeometry x="851" y="76" width="44" height="1026" as="geometry" />
          </mxCell>
        </UserObject>
        <mxCell id="3" style="vsdxID=2;fillColor=#e6ffcc;gradientColor=none;shape=stencil(lVLLDoMgEPwargSWpAlna//DRKykVixqtX9fKUQeGpLe9jHL7CyDWDG21SAQkHHS6iEWWU8tYlcEIPtWaDltEWIlYkWjtLhrNfe1zYfKIE30VG/zwmrniJkA8nEZZvxXuFnsa65qg6UxOE5XsCnHhDsAhAD3Vif7gJcTzGnMnSGmJE/t+3AuJCb3cLcMxxf6D/1e2LUHcpKdzuX7W52i84c/0CfqD3pi8vyfb4E3SyO7znot7Kfm2krWmKz8Ag==);strokeColor=#e6ffcc;spacingTop=-3;spacingBottom=-3;spacingLeft=-3;spacingRight=-3;points=[];labelBackgroundColor=none;rounded=0;html=1;whiteSpace=wrap;" parent="2" vertex="1">
          <mxGeometry width="44" height="1026" as="geometry" />
        </mxCell>
        <mxCell id="4" value="&lt;div style=&quot;font-size: 1px&quot;&gt;&lt;p style=&quot;text-align:center;margin-left:0;margin-right:0;margin-top:0px;margin-bottom:0px;text-indent:0;vertical-align:middle;direction:ltr;&quot;&gt;&lt;font style=&quot;font-size:25px;font-family:0;color:#000000;direction:ltr;letter-spacing:0px;line-height:120%;opacity:1&quot;&gt;统一标准体系&lt;/font&gt;&lt;/p&gt;&lt;/div&gt;" style="verticalAlign=middle;align=center;overflow=width;vsdxID=3;fillColor=none;gradientColor=none;shape=stencil(nZBLDoAgDAVP0z3SIyjeg0SURgWD+Lu9EGL8xBW7N828Ji1gOWs5KeBs9s72aqPGa8AKOCejlSMfEqAALFvrVOfsYprEk4xmTKNd44Y99VhscHY8qU7iQOYhFixbvfhXzlZfYgj3hQG+54dReh2KEw==);strokeColor=none;strokeWidth=0;spacingTop=-3;spacingBottom=-3;spacingLeft=-3;spacingRight=-3;points=[];labelBackgroundColor=none;rounded=0;html=1;whiteSpace=wrap;" parent="2" vertex="1">
          <mxGeometry x="8" y="151" width="26" height="643" as="geometry" />
        </mxCell>
        <UserObject label="" tags="Background" id="5">
          <mxCell style="vsdxID=4;fillColor=#ffffcc;gradientColor=none;shape=stencil(lZLRDoIwDEW/Zq9ktImEZ8T/WMKQRdxwgOLfyyzKhmSJb73d7U67lWHRN6KTDHg/WHORD1UNDcMjA1C6kVYNc8SwZFjUxsqzNaOuSHfCOV10NXd3w0R13FUAf5JK3+pExtsoKmdMQ2coJyAJyQEXA/iG5a5WaQ+aZwlmAZhHwCmPo9dz2JkiJK/epZP8H/A38UH7g2y62cV7r7Trjj/5D34zdzhMSI788xys21GrtqXl8s+32zSnaBOxfAE=);strokeColor=#000000;spacingTop=-3;spacingBottom=-3;spacingLeft=-3;spacingRight=-3;points=[];labelBackgroundColor=none;rounded=0;html=1;whiteSpace=wrap;" parent="1" vertex="1">
            <mxGeometry x="908" y="78" width="152" height="401" as="geometry" />
          </mxCell>
        </UserObject>
        <UserObject label="&lt;div style=&quot;font-size: 1px&quot;&gt;&lt;p style=&quot;text-align:center;margin-left:0;margin-right:0;margin-top:0px;margin-bottom:0px;text-indent:0;vertical-align:middle;direction:ltr;&quot;&gt;&lt;font style=&quot;font-size:18px;font-family:0;color:#000000;direction:ltr;letter-spacing:0px;line-height:120%;opacity:1&quot;&gt;&lt;b&gt;其他内部子系统&lt;/b&gt;&lt;/font&gt;&lt;/p&gt;&lt;/div&gt;" tags="Background" id="6">
          <mxCell style="verticalAlign=middle;align=center;overflow=width;vsdxID=5;fillColor=none;gradientColor=none;shape=stencil(nZBLDoAgDAVP0z3SIyjeg0SURgWD+Lu9EGL8xBW7N828Ji1gOWs5KeBs9s72aqPGa8AKOCejlSMfEqAALFvrVOfsYprEk4xmTKNd44Y99VhscHY8qU7iQOYhFixbvfhXzlZfYgj3hQG+54dReh2KEw==);strokeColor=none;strokeWidth=0;spacingTop=-3;spacingBottom=-3;spacingLeft=-3;spacingRight=-3;points=[];labelBackgroundColor=none;rounded=0;html=1;whiteSpace=wrap;" parent="1" vertex="1">
            <mxGeometry x="916" y="93" width="137" height="30" as="geometry" />
          </mxCell>
        </UserObject>
        <UserObject label="&lt;div style=&quot;font-size: 1px&quot;&gt;&lt;p style=&quot;text-align:center;margin-left:0;margin-right:0;margin-top:0px;margin-bottom:0px;text-indent:0;vertical-align:middle;direction:ltr;&quot;&gt;&lt;font style=&quot;font-size:14px;font-family:0;color:#000000;direction:ltr;letter-spacing:0px;line-height:120%;opacity:1&quot;&gt;运行监测&lt;br/&gt;&lt;/font&gt;&lt;font style=&quot;font-size:14px;font-family:0;color:#000000;direction:ltr;letter-spacing:0px;line-height:120%;opacity:1&quot;&gt;子系统&lt;/font&gt;&lt;/p&gt;&lt;/div&gt;" tags="Background" id="7">
          <mxCell style="verticalAlign=middle;align=center;overflow=width;vsdxID=6;fillColor=#FFFFFF;gradientColor=none;shape=stencil(lZLRDoMgDEW/pu9YzBKfnfsPE3GQOXCo0/39JHUqzJD41tvecigUeN7JshWArOuteYhRVb0EfgVEpaWwqp8j4AXwvDZW3K0ZdEW6LZ3TRU/zdidM1MdcB7IPqYTkjZyvoaycM/GtvpyQZLpUcV9dDmqU3iGzi8eMIRMWh251PBrA527m5R6nyGvix17HCO5yyE7Bf+YT7/wHDkbOItjY787BthS1ahraqX09XKI5RQvIiy8=);strokeColor=#000000;spacingTop=-3;spacingBottom=-3;spacingLeft=-3;spacingRight=-3;points=[];labelBackgroundColor=none;rounded=0;html=1;whiteSpace=wrap;" parent="1" vertex="1">
            <mxGeometry x="931" y="308" width="100" height="40" as="geometry" />
          </mxCell>
        </UserObject>
        <UserObject label="&lt;div style=&quot;font-size: 1px&quot;&gt;&lt;p style=&quot;text-align:center;margin-left:0;margin-right:0;margin-top:0px;margin-bottom:0px;text-indent:0;vertical-align:middle;direction:ltr;&quot;&gt;&lt;font style=&quot;font-size:14px;font-family:0;color:#000000;direction:ltr;letter-spacing:0px;line-height:120%;opacity:1&quot;&gt;公共服务&lt;br/&gt;&lt;/font&gt;&lt;font style=&quot;font-size:14px;font-family:0;color:#000000;direction:ltr;letter-spacing:0px;line-height:120%;opacity:1&quot;&gt;子系统&lt;/font&gt;&lt;/p&gt;&lt;/div&gt;" tags="Background" id="8">
          <mxCell style="verticalAlign=middle;align=center;overflow=width;vsdxID=7;fillColor=#FFFFFF;gradientColor=none;shape=stencil(lZLRDoMgDEW/pu9YzBKfnfsPE3GQOXCo0/39JHUqzJD41tvecigUeN7JshWArOuteYhRVb0EfgVEpaWwqp8j4AXwvDZW3K0ZdEW6LZ3TRU/zdidM1MdcB7IPqYTkjZyvoaycM/GtvpyQZLpUcV9dDmqU3iGzi8eMIRMWh251PBrA527m5R6nyGvix17HCO5yyE7Bf+YT7/wHDkbOItjY787BthS1ahraqX09XKI5RQvIiy8=);strokeColor=#000000;spacingTop=-3;spacingBottom=-3;spacingLeft=-3;spacingRight=-3;points=[];labelBackgroundColor=none;rounded=0;html=1;whiteSpace=wrap;" parent="1" vertex="1">
            <mxGeometry x="931" y="138" width="100" height="40" as="geometry" />
          </mxCell>
        </UserObject>
        <UserObject label="&lt;div style=&quot;font-size: 1px&quot;&gt;&lt;p style=&quot;text-align:center;margin-left:0;margin-right:0;margin-top:0px;margin-bottom:0px;text-indent:0;vertical-align:middle;direction:ltr;&quot;&gt;&lt;font style=&quot;font-size:14px;font-family:0;color:#000000;direction:ltr;letter-spacing:0px;line-height:120%;opacity:1&quot;&gt;基础信息&lt;br/&gt;&lt;/font&gt;&lt;font style=&quot;font-size:14px;font-family:0;color:#000000;direction:ltr;letter-spacing:0px;line-height:120%;opacity:1&quot;&gt;管理&lt;/font&gt;&lt;font style=&quot;font-size:NaNpx;font-family:0;color:#000000;direction:ltr;letter-spacing:0px;line-height:120%;opacity:1&quot;&gt;子系统&lt;/font&gt;&lt;/p&gt;&lt;/div&gt;" tags="Background" id="9">
          <mxCell style="verticalAlign=middle;align=center;overflow=width;vsdxID=8;fillColor=#FFFFFF;gradientColor=none;shape=stencil(lZLRDoMgDEW/pu9YzBKfnfsPE3GQOXCo0/39JHUqzJD41tvecigUeN7JshWArOuteYhRVb0EfgVEpaWwqp8j4AXwvDZW3K0ZdEW6LZ3TRU/zdidM1MdcB7IPqYTkjZyvoaycM/GtvpyQZLpUcV9dDmqU3iGzi8eMIRMWh251PBrA527m5R6nyGvix17HCO5yyE7Bf+YT7/wHDkbOItjY787BthS1ahraqX09XKI5RQvIiy8=);strokeColor=#000000;spacingTop=-3;spacingBottom=-3;spacingLeft=-3;spacingRight=-3;points=[];labelBackgroundColor=none;rounded=0;html=1;whiteSpace=wrap;" parent="1" vertex="1">
            <mxGeometry x="931" y="367" width="100" height="40" as="geometry" />
          </mxCell>
        </UserObject>
        <UserObject label="&lt;div style=&quot;font-size: 1px&quot;&gt;&lt;p style=&quot;text-align:center;margin-left:0;margin-right:0;margin-top:0px;margin-bottom:0px;text-indent:0;vertical-align:middle;direction:ltr;&quot;&gt;&lt;font style=&quot;font-size:14px;font-family:0;color:#000000;direction:ltr;letter-spacing:0px;line-height:120%;opacity:1&quot;&gt;内部控制&lt;br/&gt;&lt;/font&gt;&lt;font style=&quot;font-size:14px;font-family:0;color:#000000;direction:ltr;letter-spacing:0px;line-height:120%;opacity:1&quot;&gt;子系统&lt;/font&gt;&lt;/p&gt;&lt;/div&gt;" tags="Background" id="10">
          <mxCell style="verticalAlign=middle;align=center;overflow=width;vsdxID=9;fillColor=#FFFFFF;gradientColor=none;shape=stencil(lZLRDoMgDEW/pu9YzBKfnfsPE3GQOXCo0/39JHUqzJD41tvecigUeN7JshWArOuteYhRVb0EfgVEpaWwqp8j4AXwvDZW3K0ZdEW6LZ3TRU/zdidM1MdcB7IPqYTkjZyvoaycM/GtvpyQZLpUcV9dDmqU3iGzi8eMIRMWh251PBrA527m5R6nyGvix17HCO5yyE7Bf+YT7/wHDkbOItjY787BthS1ahraqX09XKI5RQvIiy8=);strokeColor=#000000;spacingTop=-3;spacingBottom=-3;spacingLeft=-3;spacingRight=-3;points=[];labelBackgroundColor=none;rounded=0;html=1;whiteSpace=wrap;" parent="1" vertex="1">
            <mxGeometry x="931" y="194" width="100" height="40" as="geometry" />
          </mxCell>
        </UserObject>
        <UserObject label="&lt;div style=&quot;font-size: 1px&quot;&gt;&lt;p style=&quot;text-align:center;margin-left:0;margin-right:0;margin-top:0px;margin-bottom:0px;text-indent:0;vertical-align:middle;direction:ltr;&quot;&gt;&lt;font style=&quot;font-size:14px;font-family:0;color:#000000;direction:ltr;letter-spacing:0px;line-height:120%;opacity:1&quot;&gt;大数据平台&lt;br/&gt;&lt;/font&gt;&lt;font style=&quot;font-size:14px;font-family:0;color:#000000;direction:ltr;letter-spacing:0px;line-height:120%;opacity:1&quot;&gt;DAAS服务&lt;/font&gt;&lt;/p&gt;&lt;/div&gt;" tags="Background" id="11">
          <mxCell style="verticalAlign=middle;align=center;overflow=width;vsdxID=10;fillColor=#FFFFFF;gradientColor=none;shape=stencil(lZLRDoMgDEW/pu9YzBKfnfsPE3GQOXCo0/39JHUqzJD41tvecigUeN7JshWArOuteYhRVb0EfgVEpaWwqp8j4AXwvDZW3K0ZdEW6LZ3TRU/zdidM1MdcB7IPqYTkjZyvoaycM/GtvpyQZLpUcV9dDmqU3iGzi8eMIRMWh251PBrA527m5R6nyGvix17HCO5yyE7Bf+YT7/wHDkbOItjY787BthS1ahraqX09XKI5RQvIiy8=);strokeColor=#000000;spacingTop=-3;spacingBottom=-3;spacingLeft=-3;spacingRight=-3;points=[];labelBackgroundColor=none;rounded=0;html=1;whiteSpace=wrap;" parent="1" vertex="1">
            <mxGeometry x="931" y="424" width="100" height="40" as="geometry" />
          </mxCell>
        </UserObject>
        <UserObject label="&lt;div style=&quot;font-size: 1px&quot;&gt;&lt;p style=&quot;text-align:center;margin-left:0;margin-right:0;margin-top:0px;margin-bottom:0px;text-indent:0;vertical-align:middle;direction:ltr;&quot;&gt;&lt;font style=&quot;font-size:14px;font-family:0;color:#000000;direction:ltr;letter-spacing:0px;line-height:120%;opacity:1&quot;&gt;信用评价&lt;br/&gt;&lt;/font&gt;&lt;font style=&quot;font-size:14px;font-family:0;color:#000000;direction:ltr;letter-spacing:0px;line-height:120%;opacity:1&quot;&gt;子系统&lt;/font&gt;&lt;/p&gt;&lt;/div&gt;" tags="Background" id="12">
          <mxCell style="verticalAlign=middle;align=center;overflow=width;vsdxID=11;fillColor=#FFFFFF;gradientColor=none;shape=stencil(lZLRDoMgDEW/pu9YzBKfnfsPE3GQOXCo0/39JHUqzJD41tvecigUeN7JshWArOuteYhRVb0EfgVEpaWwqp8j4AXwvDZW3K0ZdEW6LZ3TRU/zdidM1MdcB7IPqYTkjZyvoaycM/GtvpyQZLpUcV9dDmqU3iGzi8eMIRMWh251PBrA527m5R6nyGvix17HCO5yyE7Bf+YT7/wHDkbOItjY787BthS1ahraqX09XKI5RQvIiy8=);strokeColor=#000000;spacingTop=-3;spacingBottom=-3;spacingLeft=-3;spacingRight=-3;points=[];labelBackgroundColor=none;rounded=0;html=1;whiteSpace=wrap;" parent="1" vertex="1">
            <mxGeometry x="931" y="251" width="100" height="40" as="geometry" />
          </mxCell>
        </UserObject>
        <UserObject label="" tags="Background" id="13">
          <mxCell style="vsdxID=12;fillColor=#ffe6cc;gradientColor=none;shape=stencil(lVLbDoMgDP0aXgm2ic5n5/7DRJxkThxe5v5+MtgENSR762lPOaelBLO+LjpOgPWDkjf+FOVQEzwTANHWXIlhiQjmBLNKKn5VcmxLg7tCM3V0l5N+YTZ9THcAe1lE49MncTHcx1iUmhv5ZB/OYCDQGC0BXIJ9qxGto5smFBNfOyAcsbD0WofjQXzxlW7NpBThH/lf4mvAHWfj6dCBs6tDdnjxO/nN9Lt5fPHwny/BeiyVaBpza259e1xLyhwm5m8=);strokeColor=#000000;spacingTop=-3;spacingBottom=-3;spacingLeft=-3;spacingRight=-3;points=[];labelBackgroundColor=none;rounded=0;html=1;whiteSpace=wrap;" parent="1" vertex="1">
            <mxGeometry x="908" y="502" width="152" height="591" as="geometry" />
          </mxCell>
        </UserObject>
        <UserObject label="" tags="Background" id="14">
          <mxCell style="vsdxID=13;fillColor=#FFFFFF;gradientColor=none;shape=stencil(hVJBEoIwDHxNr52SqsgZ4R/MUKQjUiyg+HupQWiBqbdssulm0xAet2XWCAKs7bS6iZfMu5LwCwGQdSm07MaI8ITwuFBaXLXq6xxxkxmmie7qaV4YsI+ZDmDvCdHw+E2kyH30WW64gUt24QAIA6DsNDHAZkyPVbK2hM8hjQ6uuEc5YH+05zrsO3HFFzriKKLgM76RnxO/AWw7q5n2J7CWtUv3r36jv7K/MeSq+399DJZzKWRV4bXZ9fV5jSk8TZ58AA==);strokeColor=#000000;spacingTop=-3;spacingBottom=-3;spacingLeft=-3;spacingRight=-3;points=[];labelBackgroundColor=none;rounded=0;html=1;whiteSpace=wrap;" parent="1" vertex="1">
            <mxGeometry x="920" y="528" width="33" height="535" as="geometry" />
          </mxCell>
        </UserObject>
        <UserObject label="&lt;div style=&quot;font-size: 1px&quot;&gt;&lt;p style=&quot;text-align:center;margin-left:0;margin-right:0;margin-top:0px;margin-bottom:0px;text-indent:0;vertical-align:middle;direction:ltr;&quot;&gt;&lt;font style=&quot;font-size:22px;font-family:0;color:#000000;direction:ltr;letter-spacing:0px;line-height:120%;opacity:1&quot;&gt;国家数据共享交换平台&lt;/font&gt;&lt;/p&gt;&lt;/div&gt;" tags="Background" id="15">
          <mxCell style="verticalAlign=middle;align=center;overflow=width;vsdxID=14;fillColor=none;gradientColor=none;shape=stencil(nZBLDoAgDAVP0z3SIyjeg0SURgWD+Lu9EGL8xBW7N828Ji1gOWs5KeBs9s72aqPGa8AKOCejlSMfEqAALFvrVOfsYprEk4xmTKNd44Y99VhscHY8qU7iQOYhFixbvfhXzlZfYgj3hQG+54dReh2KEw==);strokeColor=none;strokeWidth=0;spacingTop=-3;spacingBottom=-3;spacingLeft=-3;spacingRight=-3;points=[];labelBackgroundColor=none;rounded=0;html=1;whiteSpace=wrap;" parent="1" vertex="1">
            <mxGeometry x="923" y="634" width="27" height="269" as="geometry" />
          </mxCell>
        </UserObject>
        <UserObject label="&lt;div style=&quot;font-size: 1px&quot;&gt;&lt;p style=&quot;text-align:center;margin-left:0;margin-right:0;margin-top:0px;margin-bottom:0px;text-indent:0;vertical-align:middle;direction:ltr;&quot;&gt;&lt;font style=&quot;font-size:14px;font-family:0;color:#000000;direction:ltr;letter-spacing:0px;line-height:120%;opacity:1&quot;&gt;卫健委&lt;/font&gt;&lt;/p&gt;&lt;/div&gt;" tags="Background" id="16">
          <mxCell style="verticalAlign=middle;align=center;overflow=width;vsdxID=15;fillColor=#FFFFFF;gradientColor=none;shape=stencil(lZLREoIgEEW/hlcHlnFGn83+wxkxmAwMtezvk1ZTsGx627t74XB1Cc9aWTSCAG07a87irspOEn4gAEpLYVU3VoTnhGeVseJkTa9L1E3hnK66mJu7YcBz1J0A+kDFWMTYq3NE87UvSmdmvtuXA6CMpymsp9NFtdIrahp7WLqDZHQfuszhSwYfvfhRJ0mUpP/w3435BWmQezZ8xPvBA+v+196Ag+CbJD75x58ei2VHKlXXuGLrebhTYwv3kedP);strokeColor=#000000;spacingTop=-3;spacingBottom=-3;spacingLeft=-3;spacingRight=-3;points=[];labelBackgroundColor=none;rounded=0;html=1;whiteSpace=wrap;" parent="1" vertex="1">
            <mxGeometry x="964" y="531" width="80" height="36" as="geometry" />
          </mxCell>
        </UserObject>
        <UserObject label="&lt;div style=&quot;font-size: 1px&quot;&gt;&lt;p style=&quot;text-align:center;margin-left:0;margin-right:0;margin-top:0px;margin-bottom:0px;text-indent:0;vertical-align:middle;direction:ltr;&quot;&gt;&lt;font style=&quot;font-size:14px;font-family:0;color:#000000;direction:ltr;letter-spacing:0px;line-height:120%;opacity:1&quot;&gt;市场监督&lt;br/&gt;&lt;/font&gt;&lt;font style=&quot;font-size:14px;font-family:0;color:#000000;direction:ltr;letter-spacing:0px;line-height:120%;opacity:1&quot;&gt;管理总局&lt;/font&gt;&lt;/p&gt;&lt;/div&gt;" tags="Background" id="17">
          <mxCell style="verticalAlign=middle;align=center;overflow=width;vsdxID=16;fillColor=#FFFFFF;gradientColor=none;shape=stencil(lZLREoIgEEW/hlcHlnFGn83+wxkxmAwMtezvk1ZTsGx627t74XB1Cc9aWTSCAG07a87irspOEn4gAEpLYVU3VoTnhGeVseJkTa9L1E3hnK66mJu7YcBz1J0A+kDFWMTYq3NE87UvSmdmvtuXA6CMpymsp9NFtdIrahp7WLqDZHQfuszhSwYfvfhRJ0mUpP/w3435BWmQezZ8xPvBA+v+196Ag+CbJD75x58ei2VHKlXXuGLrebhTYwv3kedP);strokeColor=#000000;spacingTop=-3;spacingBottom=-3;spacingLeft=-3;spacingRight=-3;points=[];labelBackgroundColor=none;rounded=0;html=1;whiteSpace=wrap;" parent="1" vertex="1">
            <mxGeometry x="964" y="601" width="80" height="36" as="geometry" />
          </mxCell>
        </UserObject>
        <UserObject label="&lt;div style=&quot;font-size: 1px&quot;&gt;&lt;p style=&quot;text-align:center;margin-left:0;margin-right:0;margin-top:0px;margin-bottom:0px;text-indent:0;vertical-align:middle;direction:ltr;&quot;&gt;&lt;font style=&quot;font-size:14px;font-family:0;color:#000000;direction:ltr;letter-spacing:0px;line-height:120%;opacity:1&quot;&gt;海关&lt;/font&gt;&lt;/p&gt;&lt;/div&gt;" tags="Background" id="18">
          <mxCell style="verticalAlign=middle;align=center;overflow=width;vsdxID=17;fillColor=#FFFFFF;gradientColor=none;shape=stencil(lZLREoIgEEW/hlcHlnFGn83+wxkxmAwMtezvk1ZTsGx627t74XB1Cc9aWTSCAG07a87irspOEn4gAEpLYVU3VoTnhGeVseJkTa9L1E3hnK66mJu7YcBz1J0A+kDFWMTYq3NE87UvSmdmvtuXA6CMpymsp9NFtdIrahp7WLqDZHQfuszhSwYfvfhRJ0mUpP/w3435BWmQezZ8xPvBA+v+196Ag+CbJD75x58ei2VHKlXXuGLrebhTYwv3kedP);strokeColor=#000000;spacingTop=-3;spacingBottom=-3;spacingLeft=-3;spacingRight=-3;points=[];labelBackgroundColor=none;rounded=0;html=1;whiteSpace=wrap;" parent="1" vertex="1">
            <mxGeometry x="964" y="671" width="80" height="36" as="geometry" />
          </mxCell>
        </UserObject>
        <UserObject label="&lt;div style=&quot;font-size: 1px&quot;&gt;&lt;p style=&quot;text-align:center;margin-left:0;margin-right:0;margin-top:0px;margin-bottom:0px;text-indent:0;vertical-align:middle;direction:ltr;&quot;&gt;&lt;font style=&quot;font-size:14px;font-family:0;color:#000000;direction:ltr;letter-spacing:0px;line-height:120%;opacity:1&quot;&gt;工信部&lt;/font&gt;&lt;/p&gt;&lt;/div&gt;" tags="Background" id="19">
          <mxCell style="verticalAlign=middle;align=center;overflow=width;vsdxID=18;fillColor=#FFFFFF;gradientColor=none;shape=stencil(lZLREoIgEEW/hlcHlnFGn83+wxkxmAwMtezvk1ZTsGx627t74XB1Cc9aWTSCAG07a87irspOEn4gAEpLYVU3VoTnhGeVseJkTa9L1E3hnK66mJu7YcBz1J0A+kDFWMTYq3NE87UvSmdmvtuXA6CMpymsp9NFtdIrahp7WLqDZHQfuszhSwYfvfhRJ0mUpP/w3435BWmQezZ8xPvBA+v+196Ag+CbJD75x58ei2VHKlXXuGLrebhTYwv3kedP);strokeColor=#000000;spacingTop=-3;spacingBottom=-3;spacingLeft=-3;spacingRight=-3;points=[];labelBackgroundColor=none;rounded=0;html=1;whiteSpace=wrap;" parent="1" vertex="1">
            <mxGeometry x="964" y="745" width="80" height="36" as="geometry" />
          </mxCell>
        </UserObject>
        <UserObject label="&lt;div style=&quot;font-size: 1px&quot;&gt;&lt;p style=&quot;text-align:center;margin-left:0;margin-right:0;margin-top:0px;margin-bottom:0px;text-indent:0;vertical-align:middle;direction:ltr;&quot;&gt;&lt;font style=&quot;font-size:14px;font-family:0;color:#000000;direction:ltr;letter-spacing:0px;line-height:120%;opacity:1&quot;&gt;军队&lt;/font&gt;&lt;/p&gt;&lt;/div&gt;" tags="Background" id="20">
          <mxCell style="verticalAlign=middle;align=center;overflow=width;vsdxID=19;fillColor=#FFFFFF;gradientColor=none;shape=stencil(lZLREoIgEEW/hlcHlnFGn83+wxkxmAwMtezvk1ZTsGx627t74XB1Cc9aWTSCAG07a87irspOEn4gAEpLYVU3VoTnhGeVseJkTa9L1E3hnK66mJu7YcBz1J0A+kDFWMTYq3NE87UvSmdmvtuXA6CMpymsp9NFtdIrahp7WLqDZHQfuszhSwYfvfhRJ0mUpP/w3435BWmQezZ8xPvBA+v+196Ag+CbJD75x58ei2VHKlXXuGLrebhTYwv3kedP);strokeColor=#000000;spacingTop=-3;spacingBottom=-3;spacingLeft=-3;spacingRight=-3;points=[];labelBackgroundColor=none;rounded=0;html=1;whiteSpace=wrap;" parent="1" vertex="1">
            <mxGeometry x="968" y="1021" width="80" height="36" as="geometry" />
          </mxCell>
        </UserObject>
        <UserObject label="&lt;div style=&quot;font-size: 1px&quot;&gt;&lt;p style=&quot;text-align:center;margin-left:0;margin-right:0;margin-top:0px;margin-bottom:0px;text-indent:0;vertical-align:middle;direction:ltr;&quot;&gt;&lt;font style=&quot;font-size:14px;font-family:0;color:#000000;direction:ltr;letter-spacing:0px;line-height:120%;opacity:1&quot;&gt;商务部&lt;/font&gt;&lt;/p&gt;&lt;/div&gt;" tags="Background" id="21">
          <mxCell style="verticalAlign=middle;align=center;overflow=width;vsdxID=20;fillColor=#FFFFFF;gradientColor=none;shape=stencil(lZLREoIgEEW/hlcHlnFGn83+wxkxmAwMtezvk1ZTsGx627t74XB1Cc9aWTSCAG07a87irspOEn4gAEpLYVU3VoTnhGeVseJkTa9L1E3hnK66mJu7YcBz1J0A+kDFWMTYq3NE87UvSmdmvtuXA6CMpymsp9NFtdIrahp7WLqDZHQfuszhSwYfvfhRJ0mUpP/w3435BWmQezZ8xPvBA+v+196Ag+CbJD75x58ei2VHKlXXuGLrebhTYwv3kedP);strokeColor=#000000;spacingTop=-3;spacingBottom=-3;spacingLeft=-3;spacingRight=-3;points=[];labelBackgroundColor=none;rounded=0;html=1;whiteSpace=wrap;" parent="1" vertex="1">
            <mxGeometry x="964" y="815" width="80" height="36" as="geometry" />
          </mxCell>
        </UserObject>
        <UserObject label="&lt;div style=&quot;font-size: 1px&quot;&gt;&lt;p style=&quot;text-align:center;margin-left:0;margin-right:0;margin-top:0px;margin-bottom:0px;text-indent:0;vertical-align:middle;direction:ltr;&quot;&gt;&lt;font style=&quot;font-size:14px;font-family:0;color:#000000;direction:ltr;letter-spacing:0px;line-height:120%;opacity:1&quot;&gt;税务&lt;/font&gt;&lt;/p&gt;&lt;/div&gt;" tags="Background" id="22">
          <mxCell style="verticalAlign=middle;align=center;overflow=width;vsdxID=21;fillColor=#FFFFFF;gradientColor=none;shape=stencil(lZLREoIgEEW/hlcHlnFGn83+wxkxmAwMtezvk1ZTsGx627t74XB1Cc9aWTSCAG07a87irspOEn4gAEpLYVU3VoTnhGeVseJkTa9L1E3hnK66mJu7YcBz1J0A+kDFWMTYq3NE87UvSmdmvtuXA6CMpymsp9NFtdIrahp7WLqDZHQfuszhSwYfvfhRJ0mUpP/w3435BWmQezZ8xPvBA+v+196Ag+CbJD75x58ei2VHKlXXuGLrebhTYwv3kedP);strokeColor=#000000;spacingTop=-3;spacingBottom=-3;spacingLeft=-3;spacingRight=-3;points=[];labelBackgroundColor=none;rounded=0;html=1;whiteSpace=wrap;" parent="1" vertex="1">
            <mxGeometry x="968" y="884" width="80" height="36" as="geometry" />
          </mxCell>
        </UserObject>
        <UserObject label="&lt;div style=&quot;font-size: 1px&quot;&gt;&lt;p style=&quot;text-align:center;margin-left:0;margin-right:0;margin-top:0px;margin-bottom:0px;text-indent:0;vertical-align:middle;direction:ltr;&quot;&gt;&lt;font style=&quot;font-size:14px;font-family:0;color:#000000;direction:ltr;letter-spacing:0px;line-height:120%;opacity:1&quot;&gt;国家统计局&lt;/font&gt;&lt;/p&gt;&lt;/div&gt;" tags="Background" id="23">
          <mxCell style="verticalAlign=middle;align=center;overflow=width;vsdxID=22;fillColor=#FFFFFF;gradientColor=none;shape=stencil(lZLREoIgEEW/hlcHlnFGn83+wxkxmAwMtezvk1ZTsGx627t74XB1Cc9aWTSCAG07a87irspOEn4gAEpLYVU3VoTnhGeVseJkTa9L1E3hnK66mJu7YcBz1J0A+kDFWMTYq3NE87UvSmdmvtuXA6CMpymsp9NFtdIrahp7WLqDZHQfuszhSwYfvfhRJ0mUpP/w3435BWmQezZ8xPvBA+v+196Ag+CbJD75x58ei2VHKlXXuGLrebhTYwv3kedP);strokeColor=#000000;spacingTop=-3;spacingBottom=-3;spacingLeft=-3;spacingRight=-3;points=[];labelBackgroundColor=none;rounded=0;html=1;whiteSpace=wrap;" parent="1" vertex="1">
            <mxGeometry x="968" y="957" width="80" height="36" as="geometry" />
          </mxCell>
        </UserObject>
        <UserObject label="" tags="Background" id="24">
          <mxCell style="vsdxID=23;fillColor=#e5e5e5;gradientColor=none;shape=stencil(lVLRDoMgDPwaXgnSTeOzc/9hIk4yJw5xc38/GWwCGpK99dordy1FUIxtNTBEyaikuLInr1WL4IQo5X3LJFdLhKBEUDRCsosUU18bPFSaqaObeOgXZtNHdAclL4NSnGafxNlw71NVa27ik304UwvxESyBugT7Vsd7RzfP8SHztElEOCFx6bVO9wfxxVe6NQMY4B/5X+JrwB0n8LTrwNnVLju++I18MP1mnkA8+udLsB5Lw7vO3JpbD49rSZnDhPIN);strokeColor=#000000;spacingTop=-3;spacingBottom=-3;spacingLeft=-3;spacingRight=-3;points=[];labelBackgroundColor=none;rounded=0;html=1;whiteSpace=wrap;" parent="1" vertex="1">
            <mxGeometry x="82" y="78" width="754" height="59" as="geometry" />
          </mxCell>
        </UserObject>
        <UserObject label="&lt;div style=&quot;font-size: 1px&quot;&gt;&lt;p style=&quot;text-align:center;margin-left:0;margin-right:0;margin-top:0px;margin-bottom:0px;text-indent:0;vertical-align:middle;direction:ltr;&quot;&gt;&lt;font style=&quot;font-size:18px;font-family:0;color:#000000;direction:ltr;letter-spacing:0px;line-height:120%;opacity:1&quot;&gt;省级医保信息&lt;/font&gt;&lt;font style=&quot;font-size:NaNpx;font-family:0;color:#000000;direction:ltr;letter-spacing:0px;line-height:120%;opacity:1&quot;&gt;系统&lt;/font&gt;&lt;/p&gt;&lt;/div&gt;" tags="Background" id="25">
          <mxCell style="verticalAlign=middle;align=center;overflow=width;vsdxID=24;fillColor=#FFFFFF;gradientColor=none;shape=stencil(lZLbDoIwDIafZrfL1iXqrhHfg4Qhi8hwgOLbyyzCNgnGux6+7m+7EpG0ZdYoAqztrLmoh867kogjAdB1qazuRouIlIikMFadrenrHP0mc6SzrubuXhiwjrkKYE/0JBX8HTghe+uz3LE8hEN3AHQ53fMJAB+Y3qp07enKAwUZaLMNYc5+SM95WB8kFF/wiWZ0J/+RnwOfBvxxop7WO1h2tUpvL/5LPp4+nicU3/7z0ViOpdBVhbfm5+PjGkN4mCJ9AQ==);strokeColor=#000000;spacingTop=-3;spacingBottom=-3;spacingLeft=-3;spacingRight=-3;points=[];labelBackgroundColor=none;rounded=0;html=1;whiteSpace=wrap;" parent="1" vertex="1">
            <mxGeometry x="112" y="87" width="233" height="42" as="geometry" />
          </mxCell>
        </UserObject>
        <UserObject label="&lt;div style=&quot;font-size: 1px&quot;&gt;&lt;p style=&quot;text-align:center;margin-left:0;margin-right:0;margin-top:0px;margin-bottom:0px;text-indent:0;vertical-align:middle;direction:ltr;&quot;&gt;&lt;font style=&quot;font-size:18px;font-family:0;color:#000000;direction:ltr;letter-spacing:0px;line-height:120%;opacity:1&quot;&gt;统筹区医保&lt;/font&gt;&lt;font style=&quot;font-size:NaNpx;font-family:0;color:#000000;direction:ltr;letter-spacing:0px;line-height:120%;opacity:1&quot;&gt;信息系统&lt;/font&gt;&lt;/p&gt;&lt;/div&gt;" tags="Background" id="26">
          <mxCell style="verticalAlign=middle;align=center;overflow=width;vsdxID=25;fillColor=#FFFFFF;gradientColor=none;shape=stencil(lZLbDoIwDIafZrfLtiYo14jvQcKQRWQ4DuLbyyzCNgnGux6+7m+7EkjaMmskEaztjL7Kh8q7ksCJCKHqUhrVTRaBlEBSaCMvRvd1jn6TWdJaNz3YF0asY7ZCsCd6MQX+DpyRvfdZblnuw747CnQ5jWAGhAvMb1WqdnTjI4WDp812hDn7Ib3kxfYgvviKzzSjUfyP/BL4NOCOE/S03cG6q016f/Ff8uH04Ty++P6fT8Z6LIWqKrw1Nx8e1xTCw4T0BQ==);strokeColor=#000000;spacingTop=-3;spacingBottom=-3;spacingLeft=-3;spacingRight=-3;points=[];labelBackgroundColor=none;rounded=0;html=1;whiteSpace=wrap;" parent="1" vertex="1">
            <mxGeometry x="382" y="87" width="245" height="42" as="geometry" />
          </mxCell>
        </UserObject>
        <UserObject label="&lt;div style=&quot;font-size: 1px&quot;&gt;&lt;p style=&quot;text-align:center;margin-left:0;margin-right:0;margin-top:0px;margin-bottom:0px;text-indent:0;vertical-align:middle;direction:ltr;&quot;&gt;&lt;font style=&quot;font-size:18px;font-family:0;color:#000000;direction:ltr;letter-spacing:0px;line-height:120%;opacity:1&quot;&gt;医疗机构&lt;/font&gt;&lt;/p&gt;&lt;/div&gt;" tags="Background" id="27">
          <mxCell style="verticalAlign=middle;align=center;overflow=width;vsdxID=26;fillColor=#FFFFFF;gradientColor=none;shape=stencil(lZLbDoIwDIafZrfL6BDDNeJ7kDBkERmOg/j2MouyTbLEux6+7m+7Ep71ddEJAqwftLqKhyyHmvATAZBtLbQcFovwnPCsUlpctBrbEv2uMKSxbmoyL8xYx0wFsCd6KeXRO3BG9j4WpWEjF3bdGdAFGscrADawvtXI1tJNj/SQONosIByxsPSWh/1BXPENX2lGk/Qf+W/g04A9jtfTbgfWrnbp8OJ/5P3p/Xlc8fCfL8Z2LJVsGrw1O+8f1xLCw+T5Cw==);strokeColor=#000000;spacingTop=-3;spacingBottom=-3;spacingLeft=-3;spacingRight=-3;points=[];labelBackgroundColor=none;rounded=0;html=1;whiteSpace=wrap;" parent="1" vertex="1">
            <mxGeometry x="658" y="87" width="163" height="42" as="geometry" />
          </mxCell>
        </UserObject>
        <UserObject label="&lt;div style=&quot;font-size: 1px&quot;&gt;&lt;p style=&quot;text-align:center;margin-left:0;margin-right:0;margin-top:0px;margin-bottom:0px;text-indent:0;vertical-align:middle;direction:ltr;&quot;&gt;&lt;font style=&quot;font-size:18px;font-family:0;color:#000000;direction:ltr;letter-spacing:0px;line-height:120%;opacity:1&quot;&gt;统一接口服务管理&lt;/font&gt;&lt;/p&gt;&lt;/div&gt;" tags="Background" id="28">
          <mxCell style="verticalAlign=middle;align=center;overflow=width;vsdxID=27;fillColor=#cce5ff;gradientColor=none;shape=stencil(lVLREoIgEPwaXhk8apJns/9wRkwmE0Ms+/skLAGNmd5u7/bYu2MRzfq66DgC0mslL/whSl0jekQAoq25EnqKEM0RzSqp+FnJoS0t7grDNNFV3s0Lo+0jpgPI06KEYAbvzMmSb0NRGnLis304wgzxns4EcAnzW41oHWHG8O7giZOIcELi0ksdfmziqy98i1OGSfqP/jfxmcDdJxhqcwLnWJvs+OVX8sH6q30C8fivT8Hil0o0jbWbWw/9NaWsN2n+Ag==);strokeColor=#000000;spacingTop=-3;spacingBottom=-3;spacingLeft=-3;spacingRight=-3;points=[];labelBackgroundColor=none;rounded=0;html=1;whiteSpace=wrap;" parent="1" vertex="1">
            <mxGeometry x="82" y="146" width="754" height="36" as="geometry" />
          </mxCell>
        </UserObject>
        <UserObject label="" tags="Background" id="29">
          <mxCell style="vsdxID=28;fillColor=#cce5ff;gradientColor=none;shape=stencil(lVLLEoMgDPwargyGg+Vs7X84I1amViw+av++Umh56DDTWzbZsJsQRIuxrQaOgIyTkjf+FPXUInpGAKJvuRLTFiFaIlo0UvGrknNfGzxUmqmju1z0C6vpI7oDyMsgwAQ+iYvhPuaq1twsJIdwBQtxTi0BfIJ9qxO9p8sYhjzQJgnhjKSlXR2OBwnFHd2ayTE7/SP/S3wN+ONEng4deLs6ZKcXv5OPpt/NE4kn/3wL3LE0ouvMrfn1+Li2lDlMWr4B);strokeColor=#000000;spacingTop=-3;spacingBottom=-3;spacingLeft=-3;spacingRight=-3;points=[];labelBackgroundColor=none;rounded=0;html=1;whiteSpace=wrap;" parent="1" vertex="1">
            <mxGeometry x="79" y="904" width="549" height="198" as="geometry" />
          </mxCell>
        </UserObject>
        <UserObject label="&lt;div style=&quot;font-size: 1px&quot;&gt;&lt;p style=&quot;text-align:center;margin-left:0;margin-right:0;margin-top:0px;margin-bottom:0px;text-indent:0;vertical-align:middle;direction:ltr;&quot;&gt;&lt;font style=&quot;font-size:18px;font-family:0;color:#000000;direction:ltr;letter-spacing:0px;line-height:120%;opacity:1&quot;&gt;&lt;b&gt;机构与编码同步管理&lt;/b&gt;&lt;/font&gt;&lt;/p&gt;&lt;/div&gt;" tags="Background" id="30">
          <mxCell style="verticalAlign=middle;align=center;overflow=width;vsdxID=29;fillColor=none;gradientColor=none;shape=stencil(nZBLDoAgDAVP0z3SIyjeg0SURgWD+Lu9EGL8xBW7N828Ji1gOWs5KeBs9s72aqPGa8AKOCejlSMfEqAALFvrVOfsYprEk4xmTKNd44Y99VhscHY8qU7iQOYhFixbvfhXzlZfYgj3hQG+54dReh2KEw==);strokeColor=none;strokeWidth=0;spacingTop=-3;spacingBottom=-3;spacingLeft=-3;spacingRight=-3;points=[];labelBackgroundColor=none;rounded=0;html=1;whiteSpace=wrap;" parent="1" vertex="1">
            <mxGeometry x="255" y="901" width="204" height="40" as="geometry" />
          </mxCell>
        </UserObject>
        <UserObject label="&lt;div style=&quot;font-size: 1px&quot;&gt;&lt;p style=&quot;text-align:center;margin-left:0;margin-right:0;margin-top:0px;margin-bottom:0px;text-indent:0;vertical-align:middle;direction:ltr;&quot;&gt;&lt;font style=&quot;font-size:14px;font-family:0;color:#000000;direction:ltr;letter-spacing:0px;line-height:120%;opacity:1&quot;&gt;药品和医用耗材&lt;br/&gt;&lt;/font&gt;&lt;font style=&quot;font-size:14px;font-family:0;color:#000000;direction:ltr;letter-spacing:0px;line-height:120%;opacity:1&quot;&gt;采购单位&lt;/font&gt;&lt;font style=&quot;font-size:NaNpx;font-family:0;color:#000000;direction:ltr;letter-spacing:0px;line-height:120%;opacity:1&quot;&gt;同步管理&lt;/font&gt;&lt;/p&gt;&lt;/div&gt;" tags="Background" id="31">
          <mxCell style="verticalAlign=middle;align=center;overflow=width;vsdxID=30;fillColor=#FFFFFF;gradientColor=none;shape=stencil(lZLdDoIwDIWfZrdkdEHDNeJ7kDBkcTIcoPj2shTdj8sS73q6033tVsKqqW9GToBOs1ZX/hTt3BN2IgBi6LkW8xYRVhNWdUrzi1bL0KIeG+M00U09zA0r1lFTAfSFKkd5Rud9aVrjzH2rL1dACRkrdgO4hv0uKQaHWh6zQ+GRU+CcptH2HGJj+Ghr3lv5i/xNfNjuJEE7UbzzTFF3+s1/8MHgZYKc+uktsAvSCSlxv9zzcKG2FC4jq98=);strokeColor=#000000;spacingTop=-3;spacingBottom=-3;spacingLeft=-3;spacingRight=-3;points=[];labelBackgroundColor=none;rounded=0;html=1;whiteSpace=wrap;" parent="1" vertex="1">
            <mxGeometry x="103" y="1051" width="170" height="40" as="geometry" />
          </mxCell>
        </UserObject>
        <UserObject label="&lt;div style=&quot;font-size: 1px&quot;&gt;&lt;p style=&quot;text-align:center;margin-left:0;margin-right:0;margin-top:0px;margin-bottom:0px;text-indent:0;vertical-align:middle;direction:ltr;&quot;&gt;&lt;font style=&quot;font-size:14px;font-family:0;color:#000000;direction:ltr;letter-spacing:0px;line-height:120%;opacity:1&quot;&gt;医疗机构信息同步管理&lt;/font&gt;&lt;/p&gt;&lt;/div&gt;" tags="Background" id="32">
          <mxCell style="verticalAlign=middle;align=center;overflow=width;vsdxID=31;fillColor=#FFFFFF;gradientColor=none;shape=stencil(lZLdDoIwDIWfZrdkdEHDNeJ7kDBkcTIcoPj2shTdj8sS73q6033tVsKqqW9GToBOs1ZX/hTt3BN2IgBi6LkW8xYRVhNWdUrzi1bL0KIeG+M00U09zA0r1lFTAfSFKkd5Rud9aVrjzH2rL1dACRkrdgO4hv0uKQaHWh6zQ+GRU+CcptH2HGJj+Ghr3lv5i/xNfNjuJEE7UbzzTFF3+s1/8MHgZYKc+uktsAvSCSlxv9zzcKG2FC4jq98=);strokeColor=#000000;spacingTop=-3;spacingBottom=-3;spacingLeft=-3;spacingRight=-3;points=[];labelBackgroundColor=none;rounded=0;html=1;whiteSpace=wrap;" parent="1" vertex="1">
            <mxGeometry x="103" y="999" width="170" height="40" as="geometry" />
          </mxCell>
        </UserObject>
        <UserObject label="&lt;div style=&quot;font-size: 1px&quot;&gt;&lt;p style=&quot;text-align:center;margin-left:0;margin-right:0;margin-top:0px;margin-bottom:0px;text-indent:0;vertical-align:middle;direction:ltr;&quot;&gt;&lt;font style=&quot;font-size:14px;font-family:0;color:#000000;direction:ltr;letter-spacing:0px;line-height:120%;opacity:1&quot;&gt;生产、配送企业信息&lt;br/&gt;&lt;/font&gt;&lt;font style=&quot;font-size:14px;font-family:0;color:#000000;direction:ltr;letter-spacing:0px;line-height:120%;opacity:1&quot;&gt;同步管理&lt;/font&gt;&lt;/p&gt;&lt;/div&gt;" tags="Background" id="33">
          <mxCell style="verticalAlign=middle;align=center;overflow=width;vsdxID=32;fillColor=#FFFFFF;gradientColor=none;shape=stencil(lZLdDoIwDIWfZrdkdEHDNeJ7kDBkcTIcoPj2shTdj8sS73q6033tVsKqqW9GToBOs1ZX/hTt3BN2IgBi6LkW8xYRVhNWdUrzi1bL0KIeG+M00U09zA0r1lFTAfSFKkd5Rud9aVrjzH2rL1dACRkrdgO4hv0uKQaHWh6zQ+GRU+CcptH2HGJj+Ghr3lv5i/xNfNjuJEE7UbzzTFF3+s1/8MHgZYKc+uktsAvSCSlxv9zzcKG2FC4jq98=);strokeColor=#000000;spacingTop=-3;spacingBottom=-3;spacingLeft=-3;spacingRight=-3;points=[];labelBackgroundColor=none;rounded=0;html=1;whiteSpace=wrap;" parent="1" vertex="1">
            <mxGeometry x="104" y="948" width="170" height="40" as="geometry" />
          </mxCell>
        </UserObject>
        <UserObject label="&lt;div style=&quot;font-size: 1px&quot;&gt;&lt;p style=&quot;text-align:center;margin-left:0;margin-right:0;margin-top:0px;margin-bottom:0px;text-indent:0;vertical-align:middle;direction:ltr;&quot;&gt;&lt;font style=&quot;font-size:14px;font-family:0;color:#000000;direction:ltr;letter-spacing:0px;line-height:120%;opacity:1&quot;&gt;药品和医用耗材编码&lt;br/&gt;&lt;/font&gt;&lt;font style=&quot;font-size:14px;font-family:0;color:#000000;direction:ltr;letter-spacing:0px;line-height:120%;opacity:1&quot;&gt;同步管理&lt;/font&gt;&lt;/p&gt;&lt;/div&gt;" tags="Background" id="34">
          <mxCell style="verticalAlign=middle;align=center;overflow=width;vsdxID=33;fillColor=#FFFFFF;gradientColor=none;shape=stencil(lZLdDoIwDIWfZrdkdEHDNeJ7kDBkcTIcoPj2shTdj8sS73q6033tVsKqqW9GToBOs1ZX/hTt3BN2IgBi6LkW8xYRVhNWdUrzi1bL0KIeG+M00U09zA0r1lFTAfSFKkd5Rud9aVrjzH2rL1dACRkrdgO4hv0uKQaHWh6zQ+GRU+CcptH2HGJj+Ghr3lv5i/xNfNjuJEE7UbzzTFF3+s1/8MHgZYKc+uktsAvSCSlxv9zzcKG2FC4jq98=);strokeColor=#000000;spacingTop=-3;spacingBottom=-3;spacingLeft=-3;spacingRight=-3;points=[];labelBackgroundColor=none;rounded=0;html=1;whiteSpace=wrap;" parent="1" vertex="1">
            <mxGeometry x="287" y="996" width="170" height="40" as="geometry" />
          </mxCell>
        </UserObject>
        <UserObject label="&lt;div style=&quot;font-size: 1px&quot;&gt;&lt;p style=&quot;text-align:center;margin-left:0;margin-right:0;margin-top:0px;margin-bottom:0px;text-indent:0;vertical-align:middle;direction:ltr;&quot;&gt;&lt;font style=&quot;font-size:14px;font-family:0;color:#000000;direction:ltr;letter-spacing:0px;line-height:120%;opacity:1&quot;&gt;申诉管理&lt;/font&gt;&lt;/p&gt;&lt;/div&gt;" tags="Background" id="35">
          <mxCell style="verticalAlign=middle;align=center;overflow=width;vsdxID=34;fillColor=#FFFFFF;gradientColor=none;shape=stencil(lZLdDoIwDIWfZrdkdEHDNeJ7kDBkcTIcoPj2shTdj8sS73q6033tVsKqqW9GToBOs1ZX/hTt3BN2IgBi6LkW8xYRVhNWdUrzi1bL0KIeG+M00U09zA0r1lFTAfSFKkd5Rud9aVrjzH2rL1dACRkrdgO4hv0uKQaHWh6zQ+GRU+CcptH2HGJj+Ghr3lv5i/xNfNjuJEE7UbzzTFF3+s1/8MHgZYKc+uktsAvSCSlxv9zzcKG2FC4jq98=);strokeColor=#000000;spacingTop=-3;spacingBottom=-3;spacingLeft=-3;spacingRight=-3;points=[];labelBackgroundColor=none;rounded=0;html=1;whiteSpace=wrap;" parent="1" vertex="1">
            <mxGeometry x="284" y="948" width="170" height="40" as="geometry" />
          </mxCell>
        </UserObject>
        <UserObject label="&lt;div style=&quot;font-size: 1px&quot;&gt;&lt;p style=&quot;text-align:center;margin-left:0;margin-right:0;margin-top:0px;margin-bottom:0px;text-indent:0;vertical-align:middle;direction:ltr;&quot;&gt;&lt;font style=&quot;font-size:14px;font-family:0;color:#000000;direction:ltr;letter-spacing:0px;line-height:120%;opacity:1&quot;&gt;地理信息数据管理&lt;/font&gt;&lt;/p&gt;&lt;/div&gt;" tags="Background" id="36">
          <mxCell style="verticalAlign=middle;align=center;overflow=width;vsdxID=35;fillColor=#FFFFFF;gradientColor=none;shape=stencil(lZLRDsIgDEW/htcFilH3POd/kMAccY7JNp1/L6TTwVxIfOstt5wWSnjR16JTBGg/WHNVTy2HmvATAdBtraweXER4SXhRGasu1oytRN0J7/TRzTz8DRPWUV8B9IWKoTyj8z4K6Z0stsZyApSQHfezAULDfFej24CaHzK2i8gpMKNp9HIOW2PE6MU8t/IX+Zv4sMNJVu1s4oNn2nSn3/wHvxo8T5BTP+2CZUEq3TS4X+H5eqFcCpeRl28=);strokeColor=#000000;spacingTop=-3;spacingBottom=-3;spacingLeft=-3;spacingRight=-3;points=[];labelBackgroundColor=none;rounded=0;html=1;whiteSpace=wrap;" parent="1" vertex="1">
            <mxGeometry x="470" y="948" width="140" height="40" as="geometry" />
          </mxCell>
        </UserObject>
        <UserObject label="&lt;div style=&quot;font-size: 1px&quot;&gt;&lt;p style=&quot;text-align:center;margin-left:0;margin-right:0;margin-top:0px;margin-bottom:0px;text-indent:0;vertical-align:middle;direction:ltr;&quot;&gt;&lt;font style=&quot;font-size:14px;font-family:0;color:#000000;direction:ltr;letter-spacing:0px;line-height:120%;opacity:1&quot;&gt;产品政策属性管理&lt;/font&gt;&lt;/p&gt;&lt;/div&gt;" tags="Background" id="37">
          <mxCell style="verticalAlign=middle;align=center;overflow=width;vsdxID=36;fillColor=#FFFFFF;gradientColor=none;shape=stencil(lZLRDsIgDEW/htcFilH3POd/kMAccY7JNp1/L6TTwVxIfOstt5wWSnjR16JTBGg/WHNVTy2HmvATAdBtraweXER4SXhRGasu1oytRN0J7/TRzTz8DRPWUV8B9IWKoTyj8z4K6Z0stsZyApSQHfezAULDfFej24CaHzK2i8gpMKNp9HIOW2PE6MU8t/IX+Zv4sMNJVu1s4oNn2nSn3/wHvxo8T5BTP+2CZUEq3TS4X+H5eqFcCpeRl28=);strokeColor=#000000;spacingTop=-3;spacingBottom=-3;spacingLeft=-3;spacingRight=-3;points=[];labelBackgroundColor=none;rounded=0;html=1;whiteSpace=wrap;" parent="1" vertex="1">
            <mxGeometry x="470" y="996" width="140" height="40" as="geometry" />
          </mxCell>
        </UserObject>
        <UserObject label="" tags="Background" id="38">
          <mxCell style="vsdxID=37;fillColor=#cce5ff;gradientColor=none;shape=stencil(lVLRDoMgDPwaXkktD4Zn5/7DRJxkThzq5v5+MtgENCR767VX7lpKWDG21SAIwjhpdRVPWU8tYSeCKPtWaDmtEWElYUWjtLhoNfe1xUNlmCa6qYd5YbF9YDoQXhYh5fyTOFvufa5qw81CcggXdJDy3BHQJ7i3Otl7upxTYIE2JIQzSEtvdTweJBTf6M5MTiH7R/6X+Brwx4k8HTrwdnXITi9+Jx9Nv5snEk/++Rpsx9LIrrO35tfj41pT9jBZ+QY=);strokeColor=#000000;spacingTop=-3;spacingBottom=-3;spacingLeft=-3;spacingRight=-3;points=[];labelBackgroundColor=none;rounded=0;html=1;whiteSpace=wrap;" parent="1" vertex="1">
            <mxGeometry x="79" y="759" width="411" height="133" as="geometry" />
          </mxCell>
        </UserObject>
        <UserObject label="&lt;div style=&quot;font-size: 1px&quot;&gt;&lt;p style=&quot;text-align:center;margin-left:0;margin-right:0;margin-top:0px;margin-bottom:0px;text-indent:0;vertical-align:middle;direction:ltr;&quot;&gt;&lt;font style=&quot;font-size:15px;font-family:0;color:#000000;direction:ltr;letter-spacing:0px;line-height:120%;opacity:1&quot;&gt;药品和医用耗材价格采集&lt;/font&gt;&lt;/p&gt;&lt;/div&gt;" tags="Background" id="39">
          <mxCell style="verticalAlign=middle;align=center;overflow=width;vsdxID=38;fillColor=#FFFFFF;gradientColor=none;shape=stencil(lZLbDoIwDIafZrfLthoi14jvQcKQRWQ4DuLbyyzKNskS73r4ur/tSiDr66KTRLB+MPoqH6ocagInIoRqa2nUsFgEcgJZpY28GD22JfpdYUlr3fRkX5ixjtkKwZ7opfSYvANnZO9jUVqW+7DvzgJdoMBXQLjA+lajWkc3TWiSetosIsxZXHrLi/1BfPENX2lG+eEf+W/g04A7TtDTbgfOrnbp+OJ/5MPpw3l88fifL8Z2LJVqGrw1Nx8e1xLCw4T8BQ==);strokeColor=#000000;spacingTop=-3;spacingBottom=-3;spacingLeft=-3;spacingRight=-3;points=[];labelBackgroundColor=none;rounded=0;html=1;whiteSpace=wrap;" parent="1" vertex="1">
            <mxGeometry x="94" y="788" width="121" height="40" as="geometry" />
          </mxCell>
        </UserObject>
        <UserObject label="&lt;div style=&quot;font-size: 1px&quot;&gt;&lt;p style=&quot;text-align:center;margin-left:0;margin-right:0;margin-top:0px;margin-bottom:0px;text-indent:0;vertical-align:middle;direction:ltr;&quot;&gt;&lt;font style=&quot;font-size:17px;font-family:0;color:#000000;direction:ltr;letter-spacing:0px;line-height:120%;opacity:1&quot;&gt;&lt;b&gt;价格管理&lt;/b&gt;&lt;/font&gt;&lt;/p&gt;&lt;/div&gt;" tags="Background" id="40">
          <mxCell style="verticalAlign=middle;align=center;overflow=width;vsdxID=39;fillColor=none;gradientColor=none;shape=stencil(nZBLDoAgDAVP0z3SIyjeg0SURgWD+Lu9EGL8xBW7N828Ji1gOWs5KeBs9s72aqPGa8AKOCejlSMfEqAALFvrVOfsYprEk4xmTKNd44Y99VhscHY8qU7iQOYhFixbvfhXzlZfYgj3hQG+54dReh2KEw==);strokeColor=none;strokeWidth=0;spacingTop=-3;spacingBottom=-3;spacingLeft=-3;spacingRight=-3;points=[];labelBackgroundColor=none;rounded=0;html=1;whiteSpace=wrap;" parent="1" vertex="1">
            <mxGeometry x="214" y="754" width="160" height="40" as="geometry" />
          </mxCell>
        </UserObject>
        <UserObject label="&lt;div style=&quot;font-size: 1px&quot;&gt;&lt;p style=&quot;text-align:center;margin-left:0;margin-right:0;margin-top:0px;margin-bottom:0px;text-indent:0;vertical-align:middle;direction:ltr;&quot;&gt;&lt;font style=&quot;font-size:15px;font-family:0;color:#000000;direction:ltr;letter-spacing:0px;line-height:120%;opacity:1&quot;&gt;药品和医用耗材比价管理&lt;/font&gt;&lt;/p&gt;&lt;/div&gt;" tags="Background" id="41">
          <mxCell style="verticalAlign=middle;align=center;overflow=width;vsdxID=40;fillColor=#FFFFFF;gradientColor=none;shape=stencil(lZLbDoIwDIafZrfLaBOEa8T3INmQRWQ4QPHtZQ5lm2SJdz183d92JVgMTdULAmwYtbqIh+RjQ/BIAGTXCC3HxSJYEixqpcVZq6nj1u8rQxrrqu7mhdnWMVMB7Gm9nCbZO3Cy7G2quGETH/bdGayLFHEFwAXWt1rZObp5StODp80iwgmLS2952B/EF9/wlWY0g3/kv4FPA+44QU+7HTi72qXji/+RD6cP5/HF43++GNux1LJt7a25+fC4lpA9TCxf);strokeColor=#000000;spacingTop=-3;spacingBottom=-3;spacingLeft=-3;spacingRight=-3;points=[];labelBackgroundColor=none;rounded=0;html=1;whiteSpace=wrap;" parent="1" vertex="1">
            <mxGeometry x="229" y="786" width="120" height="43" as="geometry" />
          </mxCell>
        </UserObject>
        <UserObject label="&lt;div style=&quot;font-size: 1px&quot;&gt;&lt;p style=&quot;text-align:center;margin-left:0;margin-right:0;margin-top:0px;margin-bottom:0px;text-indent:0;vertical-align:middle;direction:ltr;&quot;&gt;&lt;font style=&quot;font-size:15px;font-family:0;color:#000000;direction:ltr;letter-spacing:0px;line-height:120%;opacity:1&quot;&gt;医保采购限价&lt;br/&gt;&lt;/font&gt;&lt;font style=&quot;font-size:15px;font-family:0;color:#000000;direction:ltr;letter-spacing:0px;line-height:120%;opacity:1&quot;&gt;管理&lt;/font&gt;&lt;/p&gt;&lt;/div&gt;" tags="Background" id="42">
          <mxCell style="verticalAlign=middle;align=center;overflow=width;vsdxID=41;fillColor=#FFFFFF;gradientColor=none;shape=stencil(lVLRDoMgDPwaXgmUxOizc/9hIk4yBw51c38/Wd0ENSR767VX7lpKRN43ZScJsH6w5iqfqhoaIk4EQOlGWjXMEREFEXltrLxYM+oKcVc6potu5uFemLCPuQ5gL0QpzdJP4ozc+1hWjstDcggnQCio4AsBfMLyVqu0p5slNMkCbRYR5iwuvdbheJBQfKUvZjhl8I/8L/E14I+z8XTowNvVITu++J38ZvrdPKF4/M/nYD2WWrUt3ppf3x7XnMLDFMUb);strokeColor=#000000;spacingTop=-3;spacingBottom=-3;spacingLeft=-3;spacingRight=-3;points=[];labelBackgroundColor=none;rounded=0;html=1;whiteSpace=wrap;" parent="1" vertex="1">
            <mxGeometry x="94" y="838" width="121" height="44" as="geometry" />
          </mxCell>
        </UserObject>
        <UserObject label="&lt;div style=&quot;font-size: 1px&quot;&gt;&lt;p style=&quot;text-align:center;margin-left:0;margin-right:0;margin-top:0px;margin-bottom:0px;text-indent:0;vertical-align:middle;direction:ltr;&quot;&gt;&lt;font style=&quot;font-size:15px;font-family:0;color:#000000;direction:ltr;letter-spacing:0px;line-height:120%;opacity:1&quot;&gt;国家谈判药品&lt;br/&gt;&lt;/font&gt;&lt;font style=&quot;font-size:15px;font-family:0;color:#000000;direction:ltr;letter-spacing:0px;line-height:120%;opacity:1&quot;&gt;管理&lt;/font&gt;&lt;/p&gt;&lt;/div&gt;" tags="Background" id="43">
          <mxCell style="verticalAlign=middle;align=center;overflow=width;vsdxID=42;fillColor=#FFFFFF;gradientColor=none;shape=stencil(lZLRDoIwDEW/Zq/LaBOUZ8T/IGHIIjKcoPj3MouyTbLEt97udqfdyjC/NWUvGYjbYPRZPlQ1NAwPDEB1jTRqmCOGBcO81kaejB67inRfWqeNLvpub5ioTtgKEE9SGYe3PpL1OpaVtSa+15cTkESOuBjANSx3tapzsFnK052HFhFwIuLo9Rw25/DZq3sxC77/B/5NfPDuMEFHmw04L7Xpjj/7Dz6cPRjHZ0f/ew7WPalV29KauefhXs0p2kksXg==);strokeColor=#000000;spacingTop=-3;spacingBottom=-3;spacingLeft=-3;spacingRight=-3;points=[];labelBackgroundColor=none;rounded=0;html=1;whiteSpace=wrap;" parent="1" vertex="1">
            <mxGeometry x="229" y="840" width="120" height="43" as="geometry" />
          </mxCell>
        </UserObject>
        <UserObject label="&lt;div style=&quot;font-size: 1px&quot;&gt;&lt;p style=&quot;text-align:center;margin-left:0;margin-right:0;margin-top:0px;margin-bottom:0px;text-indent:0;vertical-align:middle;direction:ltr;&quot;&gt;&lt;font style=&quot;font-size:15px;font-family:0;color:#000000;direction:ltr;letter-spacing:0px;line-height:120%;opacity:1&quot;&gt;麻精药品价格管理&lt;/font&gt;&lt;/p&gt;&lt;/div&gt;" tags="Background" id="44">
          <mxCell style="verticalAlign=middle;align=center;overflow=width;vsdxID=43;fillColor=#FFFFFF;gradientColor=none;shape=stencil(lVLRDoIwDPyavS6jTRCeEf+DhCGLyHCC4t/LLMoGZIlvvfa6u3ZlmN3ropMMxL03+iKfquxrhkcGoNpaGtVPEcOcYVZpI89GD21JuCss00ZX/bAvjNQnbAeIF6GEp8kncSLubShKy418sg9HIIgccSaAS5jfalTr6KYxjw+etggIRyIsvdRhfxBffKHPZiIu4B/5X+JrwB1n5WnXgbOrXXZ48Rv51fSbeXzx8J9PwXIslWoaujW3vj6uKUWHifkb);strokeColor=#000000;spacingTop=-3;spacingBottom=-3;spacingLeft=-3;spacingRight=-3;points=[];labelBackgroundColor=none;rounded=0;html=1;whiteSpace=wrap;" parent="1" vertex="1">
            <mxGeometry x="361" y="786" width="120" height="44" as="geometry" />
          </mxCell>
        </UserObject>
        <UserObject label="" tags="Background" id="45">
          <mxCell style="vsdxID=44;fillColor=#e6ffcc;gradientColor=none;shape=stencil(lVLLDoMgEPwargZ3Y41na//DRKykViw+av++UnwAGpLe9jHLzCxLMO2qvGUEaNdL8WBvXvQVwSsB4E3FJO/niGBGMC2FZHcphqbQeZsrpIqeYlQvTHqOqgmgH51BQONf4aaxryEvFDa0wXY6wTqM0QIAE7C8VfPG4E3i4BJZ3NRDHFI/9d6HcyM2+Q7fxCT4D/1WWAWYdhxNpwqMXZ2i/Ys/0DvuD35scv+fz8F+LCWva31rZt89rrmkDxOzLw==);strokeColor=#000000;spacingTop=-3;spacingBottom=-3;spacingLeft=-3;spacingRight=-3;points=[];labelBackgroundColor=none;rounded=0;html=1;whiteSpace=wrap;" parent="1" vertex="1">
            <mxGeometry x="669" y="699" width="170" height="193" as="geometry" />
          </mxCell>
        </UserObject>
        <UserObject label="&lt;div style=&quot;font-size: 1px&quot;&gt;&lt;p style=&quot;text-align:center;margin-left:0;margin-right:0;margin-top:0px;margin-bottom:0px;text-indent:0;vertical-align:middle;direction:ltr;&quot;&gt;&lt;font style=&quot;font-size:18px;font-family:0;color:#000000;direction:ltr;letter-spacing:0px;line-height:120%;opacity:1&quot;&gt;&lt;b&gt;公共服务管理&lt;/b&gt;&lt;/font&gt;&lt;/p&gt;&lt;/div&gt;" tags="Background" id="46">
          <mxCell style="verticalAlign=middle;align=center;overflow=width;vsdxID=45;fillColor=none;gradientColor=none;shape=stencil(nZBLDoAgDAVP0z3SIyjeg0SURgWD+Lu9EGL8xBW7N828Ji1gOWs5KeBs9s72aqPGa8AKOCejlSMfEqAALFvrVOfsYprEk4xmTKNd44Y99VhscHY8qU7iQOYhFixbvfhXzlZfYgj3hQG+54dReh2KEw==);strokeColor=none;strokeWidth=0;spacingTop=-3;spacingBottom=-3;spacingLeft=-3;spacingRight=-3;points=[];labelBackgroundColor=none;rounded=0;html=1;whiteSpace=wrap;" parent="1" vertex="1">
            <mxGeometry x="674" y="696" width="160" height="40" as="geometry" />
          </mxCell>
        </UserObject>
        <UserObject label="&lt;div style=&quot;font-size: 1px&quot;&gt;&lt;p style=&quot;text-align:center;margin-left:0;margin-right:0;margin-top:0px;margin-bottom:0px;text-indent:0;vertical-align:middle;direction:ltr;&quot;&gt;&lt;font style=&quot;font-size:15px;font-family:0;color:#000000;direction:ltr;letter-spacing:0px;line-height:120%;opacity:1&quot;&gt;公共服务管理&lt;/font&gt;&lt;/p&gt;&lt;/div&gt;" tags="Background" id="47">
          <mxCell style="verticalAlign=middle;align=center;overflow=width;vsdxID=46;fillColor=#FFFFFF;gradientColor=none;shape=stencil(lVJBEoIwDHxNr502dQTOiP9ghiIdEbCA4u+lBm0LiOMtm910kzRExG2RNpIAaztdn+VdZV1BxIEAqKqQWnVjRERCRJzXWp503VcZ4iY1ShNd6pt5YcA6ZiqAPRBxToP9K3NE8bVPMyPmvtqHAyAEGk08uPz0VKkqxzcKKPes2YYtZ9vGlocvc/jmVo84DCns/vH/JN4dOOPMelptwG5qVby99YX5bPjFNL73jx8fA3sruSpLPDWXn9/WmMK7FMkT);strokeColor=#000000;spacingTop=-3;spacingBottom=-3;spacingLeft=-3;spacingRight=-3;points=[];labelBackgroundColor=none;rounded=0;html=1;whiteSpace=wrap;" parent="1" vertex="1">
            <mxGeometry x="685" y="745" width="138" height="34" as="geometry" />
          </mxCell>
        </UserObject>
        <UserObject label="&lt;div style=&quot;font-size: 1px&quot;&gt;&lt;p style=&quot;text-align:center;margin-left:0;margin-right:0;margin-top:0px;margin-bottom:0px;text-indent:0;vertical-align:middle;direction:ltr;&quot;&gt;&lt;font style=&quot;font-size:15px;font-family:0;color:#000000;direction:ltr;letter-spacing:0px;line-height:120%;opacity:1&quot;&gt;政策文件查询&lt;br/&gt;&lt;/font&gt;&lt;font style=&quot;font-size:15px;font-family:0;color:#000000;direction:ltr;letter-spacing:0px;line-height:120%;opacity:1&quot;&gt;管理&lt;/font&gt;&lt;/p&gt;&lt;/div&gt;" tags="Background" id="48">
          <mxCell style="verticalAlign=middle;align=center;overflow=width;vsdxID=47;fillColor=#FFFFFF;gradientColor=none;shape=stencil(lVJBEoIwDHxNr502dUTOiP9ghiIdkWIFxd9LDdoWEMdbNrvpJmmISK5l1kgC7NoafZJ3lbclEXsCoOpSGtUOEREpEUmhjTwa3dU54iazShud9c2+0GMdsxXAHog4o7B5ZQ4ovnRZbsU8VIewB4RA45EHnx+fqlTt+cYR5YE1W7HlbN3Y8fBljtDc6RHvYhpt//H/JN4deONMelpswG1qUby+9Zn5ZPjZNKH3jx8fAncrhaoqPDWfn97WkMK7FOkT);strokeColor=#000000;spacingTop=-3;spacingBottom=-3;spacingLeft=-3;spacingRight=-3;points=[];labelBackgroundColor=none;rounded=0;html=1;whiteSpace=wrap;" parent="1" vertex="1">
            <mxGeometry x="685" y="791" width="138" height="39" as="geometry" />
          </mxCell>
        </UserObject>
        <UserObject label="&lt;div style=&quot;font-size: 1px&quot;&gt;&lt;p style=&quot;text-align:center;margin-left:0;margin-right:0;margin-top:0px;margin-bottom:0px;text-indent:0;vertical-align:middle;direction:ltr;&quot;&gt;&lt;font style=&quot;font-size:15px;font-family:0;color:#000000;direction:ltr;letter-spacing:0px;line-height:120%;opacity:1&quot;&gt;药品耗材代码及基本信息查询&lt;/font&gt;&lt;/p&gt;&lt;/div&gt;" tags="Background" id="49">
          <mxCell style="verticalAlign=middle;align=center;overflow=width;vsdxID=48;fillColor=#FFFFFF;gradientColor=none;shape=stencil(lVLbDoIwDP2avS6jM5o9I/4HCUMWkeEAxb+XWXQXyRLfenpOd9quhOdDU/aSABtGoy/yoaqxIfxIAFTXSKPGJSK8IDyvtZFno6euQtyXVmmjq77bF2asY7YC2BORoGz3TpxQe5vKymqzUBzCGRACFSsPPr8+1arOsxUHmgXOLGGbsbSx42F7jNDbyVc1o2L/j/038WnAmyZqabMBt6hNcXrpP+bx7PE0oXf6v5fAHUqt2hbvzOfjw1pSeJS8eAE=);strokeColor=#000000;spacingTop=-3;spacingBottom=-3;spacingLeft=-3;spacingRight=-3;points=[];labelBackgroundColor=none;rounded=0;html=1;whiteSpace=wrap;" parent="1" vertex="1">
            <mxGeometry x="685" y="840" width="138" height="44" as="geometry" />
          </mxCell>
        </UserObject>
        <UserObject label="&lt;div style=&quot;font-size: 1px&quot;&gt;&lt;p style=&quot;text-align:center;margin-left:0;margin-right:0;margin-top:0px;margin-bottom:0px;text-indent:0;vertical-align:middle;direction:ltr;&quot;&gt;&lt;font style=&quot;font-size:18px;font-family:0;color:#000000;direction:ltr;letter-spacing:0px;line-height:120%;opacity:1&quot;&gt;&lt;b&gt;规划调度中心&lt;/b&gt;&lt;/font&gt;&lt;/p&gt;&lt;/div&gt;" tags="Background" id="50">
          <mxCell style="verticalAlign=middle;align=center;overflow=width;vsdxID=49;fillColor=#ccffe6;gradientColor=none;shape=stencil(lVLLEoMgDPwargyCfXC2+h/OiJWpFYva2r+vNLYCWmZ6yyYbNgmLWNJVeSsQJV2v1UU8ZNFXiJ0QpbKphJb9FCGWIpaUSouzVkNTAG5zwzTRVd3NCyP0EdNByRNQRDDfvzMZkG9DXhhy5LJdONIZ4h2bCdQmzG/VsrGEOcfxwREnAeGIhKWXOv2xiau+8AEfOSbxP/rfxGcCex9vqM0JrGNtssOXX8l766/28cTDvz4Fi19KWddgN7vu+2tKgTdZ+gI=);strokeColor=#000000;spacingTop=-3;spacingBottom=-3;spacingLeft=-3;spacingRight=-3;points=[];labelBackgroundColor=none;rounded=0;html=1;whiteSpace=wrap;" parent="1" vertex="1">
            <mxGeometry x="79" y="649" width="760" height="36" as="geometry" />
          </mxCell>
        </UserObject>
        <UserObject label="" tags="Background" id="51">
          <mxCell style="vsdxID=50;fillColor=#ffcccc;gradientColor=none;shape=stencil(lVLLDoMgEPwargZ3kxrP1v6HiVhILVh81P59pfgANSS97WOWmVmWYNbyomEEaNtp9WBvUXac4JUACMmZFt0UEcwJZpXS7K5VL0ubN4VBmuipBvPCaOeomQD6sRlENPkVbhb76ovSYGMf7KcjLMMXnAHgAua3aiEd3jSJMPG4aYA4pmHqrQ/nRnzyDb6KSfEf+rWwCHDt7DSdKnB2dYoOL/5Av3N/8OOTh/98CrZjqURd21tz+/vjmkr2MDH/Ag==);strokeColor=#000000;spacingTop=-3;spacingBottom=-3;spacingLeft=-3;spacingRight=-3;points=[];labelBackgroundColor=none;rounded=0;html=1;whiteSpace=wrap;" parent="1" vertex="1">
            <mxGeometry x="502" y="699" width="152" height="193" as="geometry" />
          </mxCell>
        </UserObject>
        <UserObject label="&lt;div style=&quot;font-size: 1px&quot;&gt;&lt;p style=&quot;text-align:center;margin-left:0;margin-right:0;margin-top:0px;margin-bottom:0px;text-indent:0;vertical-align:middle;direction:ltr;&quot;&gt;&lt;font style=&quot;font-size:18px;font-family:0;color:#000000;direction:ltr;letter-spacing:0px;line-height:120%;opacity:1&quot;&gt;&lt;b&gt;业务监管&lt;/b&gt;&lt;/font&gt;&lt;/p&gt;&lt;/div&gt;" tags="Background" id="52">
          <mxCell style="verticalAlign=middle;align=center;overflow=width;vsdxID=51;fillColor=none;gradientColor=none;shape=stencil(nZBLDoAgDAVP0z3SIyjeg0SURgWD+Lu9EGL8xBW7N828Ji1gOWs5KeBs9s72aqPGa8AKOCejlSMfEqAALFvrVOfsYprEk4xmTKNd44Y99VhscHY8qU7iQOYhFixbvfhXzlZfYgj3hQG+54dReh2KEw==);strokeColor=none;strokeWidth=0;spacingTop=-3;spacingBottom=-3;spacingLeft=-3;spacingRight=-3;points=[];labelBackgroundColor=none;rounded=0;html=1;whiteSpace=wrap;" parent="1" vertex="1">
            <mxGeometry x="498" y="693" width="160" height="40" as="geometry" />
          </mxCell>
        </UserObject>
        <UserObject label="&lt;div style=&quot;font-size: 1px&quot;&gt;&lt;p style=&quot;text-align:center;margin-left:0;margin-right:0;margin-top:0px;margin-bottom:0px;text-indent:0;vertical-align:middle;direction:ltr;&quot;&gt;&lt;font style=&quot;font-size:15px;font-family:0;color:#000000;direction:ltr;letter-spacing:0px;line-height:120%;opacity:1&quot;&gt;监管方案&lt;br/&gt;&lt;/font&gt;&lt;font style=&quot;font-size:15px;font-family:0;color:#000000;direction:ltr;letter-spacing:0px;line-height:120%;opacity:1&quot;&gt;定制&lt;/font&gt;&lt;/p&gt;&lt;/div&gt;" tags="Background" id="53">
          <mxCell style="verticalAlign=middle;align=center;overflow=width;vsdxID=52;fillColor=#FFFFFF;gradientColor=none;shape=stencil(lVLRDoIwDPyavS5bpwl7RvwPEoYsIsMBin8vsygbIMa3Xnvdtd0RETdFWisCrGmtOau7ztqCiAMB0FWhrG6HiIiEiDg3Vp2s6aoMcZ06posu5uZe6LGPuQ5gD0ScU8ZfmSOSr12aOTIP2SHsAeGOMhgJ4BPGt0pdecJyT2UUiLMNYc62pac6fNkkVJ/4iKOISvmP/ifxnsDfZzbU6gTesVbZ25dfyM/WX+wTiv/49SGY/JLrskS7+fW5v4YUelMkTw==);strokeColor=#000000;spacingTop=-3;spacingBottom=-3;spacingLeft=-3;spacingRight=-3;points=[];labelBackgroundColor=none;rounded=0;html=1;whiteSpace=wrap;" parent="1" vertex="1">
            <mxGeometry x="528" y="730" width="99" height="36" as="geometry" />
          </mxCell>
        </UserObject>
        <UserObject label="&lt;div style=&quot;font-size: 1px&quot;&gt;&lt;p style=&quot;text-align:center;margin-left:0;margin-right:0;margin-top:0px;margin-bottom:0px;text-indent:0;vertical-align:middle;direction:ltr;&quot;&gt;&lt;font style=&quot;font-size:15px;font-family:0;color:#000000;direction:ltr;letter-spacing:0px;line-height:120%;opacity:1&quot;&gt;业务监测&lt;/font&gt;&lt;/p&gt;&lt;/div&gt;" tags="Background" id="54">
          <mxCell style="verticalAlign=middle;align=center;overflow=width;vsdxID=53;fillColor=#FFFFFF;gradientColor=none;shape=stencil(lZJNEoIwDIVP0y1TEgZ1jXgPZijSESmWH/H2UoNAi+K4y0te+yVtGEZ1nlSCAa8brS7iLtMmZ3hkALLMhZbNEDGMGUaZ0uKsVVumpKvEOE10VZ25oadz3JwA/iDlo4f4ypzIfGuT1Jh9223LHkgGYxWW1fGiQpYL6iG0sHwD6fNt6FyHLzPY6NlPeh964e4f/pR4dzAN43T0ER9YcMe6/dorsDP4ahKb/OOnh2DekUwWBa3Ysu7u1JCifcT4CQ==);strokeColor=#000000;spacingTop=-3;spacingBottom=-3;spacingLeft=-3;spacingRight=-3;points=[];labelBackgroundColor=none;rounded=0;html=1;whiteSpace=wrap;" parent="1" vertex="1">
            <mxGeometry x="528" y="771" width="100" height="30" as="geometry" />
          </mxCell>
        </UserObject>
        <UserObject label="&lt;div style=&quot;font-size: 1px&quot;&gt;&lt;p style=&quot;text-align:center;margin-left:0;margin-right:0;margin-top:0px;margin-bottom:0px;text-indent:0;vertical-align:middle;direction:ltr;&quot;&gt;&lt;font style=&quot;font-size:15px;font-family:0;color:#000000;direction:ltr;letter-spacing:0px;line-height:120%;opacity:1&quot;&gt;履约监管&lt;/font&gt;&lt;/p&gt;&lt;/div&gt;" tags="Background" id="55">
          <mxCell style="verticalAlign=middle;align=center;overflow=width;vsdxID=54;fillColor=#FFFFFF;gradientColor=none;shape=stencil(lZJNEoIwDIVP0y1TEgZ1jXgPZijSESmWH/H2UoNAi+K4y0te+yVtGEZ1nlSCAa8brS7iLtMmZ3hkALLMhZbNEDGMGUaZ0uKsVVumpKvEOE10VZ25oadz3JwA/iDlo4f4ypzIfGuT1Jh9223LHkgGYxWW1fGiQpYL6iG0sHwD6fNt6FyHLzPY6NlPeh964e4f/pR4dzAN43T0ER9YcMe6/dorsDP4ahKb/OOnh2DekUwWBa3Ysu7u1JCifcT4CQ==);strokeColor=#000000;spacingTop=-3;spacingBottom=-3;spacingLeft=-3;spacingRight=-3;points=[];labelBackgroundColor=none;rounded=0;html=1;whiteSpace=wrap;" parent="1" vertex="1">
            <mxGeometry x="528" y="810" width="100" height="30" as="geometry" />
          </mxCell>
        </UserObject>
        <UserObject label="&lt;div style=&quot;font-size: 1px&quot;&gt;&lt;p style=&quot;text-align:center;margin-left:0;margin-right:0;margin-top:0px;margin-bottom:0px;text-indent:0;vertical-align:middle;direction:ltr;&quot;&gt;&lt;font style=&quot;font-size:15px;font-family:0;color:#000000;direction:ltr;letter-spacing:0px;line-height:120%;opacity:1&quot;&gt;监测预警&lt;/font&gt;&lt;/p&gt;&lt;/div&gt;" tags="Background" id="56">
          <mxCell style="verticalAlign=middle;align=center;overflow=width;vsdxID=55;fillColor=#FFFFFF;gradientColor=none;shape=stencil(lZJNEoIwDIVP0y1TEgZ1jXgPZijSESmWH/H2UoNAi+K4y0te+yVtGEZ1nlSCAa8brS7iLtMmZ3hkALLMhZbNEDGMGUaZ0uKsVVumpKvEOE10VZ25oadz3JwA/iDlo4f4ypzIfGuT1Jh9223LHkgGYxWW1fGiQpYL6iG0sHwD6fNt6FyHLzPY6NlPeh964e4f/pR4dzAN43T0ER9YcMe6/dorsDP4ahKb/OOnh2DekUwWBa3Ysu7u1JCifcT4CQ==);strokeColor=#000000;spacingTop=-3;spacingBottom=-3;spacingLeft=-3;spacingRight=-3;points=[];labelBackgroundColor=none;rounded=0;html=1;whiteSpace=wrap;" parent="1" vertex="1">
            <mxGeometry x="528" y="851" width="100" height="30" as="geometry" />
          </mxCell>
        </UserObject>
        <UserObject label="" tags="Background" id="57">
          <mxCell style="vsdxID=56;fillColor=#ffcccc;gradientColor=none;shape=stencil(lVLRDoIwDPyavS5bpwGeEf+DhCGLyHCA4t/LLMIGBONbr73url2JiJsirSUB1rRGX+VTZW1BxIkAqKqQRrVDRERCRJxrIy9Gd1WGuE4t00Y3/bAv9NjHbAewFyKgnH8SZ+TeuzSzXO6TfdgDQk4PYiSASxjfKlXl6EYhPQaeNtsR5uyH9FSH7UF88Zk+mgloGP0jPyW+BtxxFp62Hcy72mTvL34lv5h+NY8vvv/nQzAfS67KEm/NrS+Pa0jhYYrkDQ==);strokeColor=#000000;spacingTop=-3;spacingBottom=-3;spacingLeft=-3;spacingRight=-3;points=[];labelBackgroundColor=none;rounded=0;html=1;whiteSpace=wrap;" parent="1" vertex="1">
            <mxGeometry x="268" y="447" width="279" height="190" as="geometry" />
          </mxCell>
        </UserObject>
        <UserObject label="&lt;div style=&quot;font-size: 1px&quot;&gt;&lt;p style=&quot;text-align:center;margin-left:0;margin-right:0;margin-top:0px;margin-bottom:0px;text-indent:0;vertical-align:middle;direction:ltr;&quot;&gt;&lt;font style=&quot;font-size:18px;font-family:0;color:#000000;direction:ltr;letter-spacing:0px;line-height:120%;opacity:1&quot;&gt;&lt;b&gt;辅助决策管理&lt;/b&gt;&lt;/font&gt;&lt;/p&gt;&lt;/div&gt;" tags="Background" id="58">
          <mxCell style="verticalAlign=middle;align=center;overflow=width;vsdxID=57;fillColor=none;gradientColor=none;shape=stencil(nZBLDoAgDAVP0z3SIyjeg0SURgWD+Lu9EGL8xBW7N828Ji1gOWs5KeBs9s72aqPGa8AKOCejlSMfEqAALFvrVOfsYprEk4xmTKNd44Y99VhscHY8qU7iQOYhFixbvfhXzlZfYgj3hQG+54dReh2KEw==);strokeColor=none;strokeWidth=0;spacingTop=-3;spacingBottom=-3;spacingLeft=-3;spacingRight=-3;points=[];labelBackgroundColor=none;rounded=0;html=1;whiteSpace=wrap;" parent="1" vertex="1">
            <mxGeometry x="288" y="445" width="239" height="40" as="geometry" />
          </mxCell>
        </UserObject>
        <UserObject label="&lt;div style=&quot;font-size: 1px&quot;&gt;&lt;p style=&quot;text-align:center;margin-left:0;margin-right:0;margin-top:0px;margin-bottom:0px;text-indent:0;vertical-align:middle;direction:ltr;&quot;&gt;&lt;font style=&quot;font-size:14px;font-family:0;color:#000000;direction:ltr;letter-spacing:0px;line-height:120%;opacity:1&quot;&gt;药品和医用耗材结构分析&lt;/font&gt;&lt;/p&gt;&lt;/div&gt;" tags="Background" id="59">
          <mxCell style="verticalAlign=middle;align=center;overflow=width;vsdxID=58;fillColor=#FFFFFF;gradientColor=none;shape=stencil(lVLbEoIgEP0aXhlYmrRns/9wRkwmEyMt+/ukNQU1nd72cpazZzlERPc8qSQBdq+NvsinSuuciCMBUGUujaq7iIiYiCjTRp6NbsoU8yqxSBtd9cO+0OIcsxPAXphxoDz4VE4IvjVJasHcR/tpC/003fd9cPv9U4UqHd5DSHceNVuh5WyDeOjDDx0++YjHPAxoKP7hHwrfDRw5k52WFxgutQhev/qMfCJ+psbn3vjxLhi9kqmiQKu5/am3uhL6UsRv);strokeColor=#000000;spacingTop=-3;spacingBottom=-3;spacingLeft=-3;spacingRight=-3;points=[];labelBackgroundColor=none;rounded=0;html=1;whiteSpace=wrap;" parent="1" vertex="1">
            <mxGeometry x="287" y="510" width="250" height="32" as="geometry" />
          </mxCell>
        </UserObject>
        <UserObject label="&lt;div style=&quot;font-size: 1px&quot;&gt;&lt;p style=&quot;text-align:center;margin-left:0;margin-right:0;margin-top:0px;margin-bottom:0px;text-indent:0;vertical-align:middle;direction:ltr;&quot;&gt;&lt;font style=&quot;font-size:14px;font-family:0;color:#000000;direction:ltr;letter-spacing:0px;line-height:120%;opacity:1&quot;&gt;价格分析&lt;/font&gt;&lt;/p&gt;&lt;/div&gt;" tags="Background" id="60">
          <mxCell style="verticalAlign=middle;align=center;overflow=width;vsdxID=59;fillColor=#FFFFFF;gradientColor=none;shape=stencil(lVJBEoIwDHxNr502cQDPiP9ghiIdkWIBxd9LLUoLiOMtm2y6SboE46ZIa0GANa1WZ3GXWVsQPBAAWRVCy3aICCYE41xpcdKqqzKL69QwTXRRN/NCb/uY6QD2sIhzGgavzNGSr12aGTL32T7swUKkiCMBXML4VikrR3gf0CD0xNmGMGfb0lMdvmziq098i6OIwu4f/U/iPYG7z2yo1QmcY62yty+/kJ+tv9jHF//x60Mw+SWXZWnt5tbn/hpS1puYPAE=);strokeColor=#000000;spacingTop=-3;spacingBottom=-3;spacingLeft=-3;spacingRight=-3;points=[];labelBackgroundColor=none;rounded=0;html=1;whiteSpace=wrap;" parent="1" vertex="1">
            <mxGeometry x="284" y="550" width="120" height="34" as="geometry" />
          </mxCell>
        </UserObject>
        <UserObject label="&lt;div style=&quot;font-size: 1px&quot;&gt;&lt;p style=&quot;text-align:center;margin-left:0;margin-right:0;margin-top:0px;margin-bottom:0px;text-indent:0;vertical-align:middle;direction:ltr;&quot;&gt;&lt;font style=&quot;font-size:14px;font-family:0;color:#000000;direction:ltr;letter-spacing:0px;line-height:120%;opacity:1&quot;&gt;专题分析&lt;/font&gt;&lt;/p&gt;&lt;/div&gt;" tags="Background" id="61">
          <mxCell style="verticalAlign=middle;align=center;overflow=width;vsdxID=60;fillColor=#FFFFFF;gradientColor=none;shape=stencil(lVJBEoIwDHxNr502cQDPiP9ghiIdkWIBxd9LLUoLiOMtm2y6SboE46ZIa0GANa1WZ3GXWVsQPBAAWRVCy3aICCYE41xpcdKqqzKL69QwTXRRN/NCb/uY6QD2sIhzGgavzNGSr12aGTL32T7swUKkiCMBXML4VikrR3gf0CD0xNmGMGfb0lMdvmziq098i6OIwu4f/U/iPYG7z2yo1QmcY62yty+/kJ+tv9jHF//x60Mw+SWXZWnt5tbn/hpS1puYPAE=);strokeColor=#000000;spacingTop=-3;spacingBottom=-3;spacingLeft=-3;spacingRight=-3;points=[];labelBackgroundColor=none;rounded=0;html=1;whiteSpace=wrap;" parent="1" vertex="1">
            <mxGeometry x="417" y="550" width="120" height="34" as="geometry" />
          </mxCell>
        </UserObject>
        <UserObject label="&lt;div style=&quot;font-size: 1px&quot;&gt;&lt;p style=&quot;text-align:center;margin-left:0;margin-right:0;margin-top:0px;margin-bottom:0px;text-indent:0;vertical-align:middle;direction:ltr;&quot;&gt;&lt;font style=&quot;font-size:14px;font-family:0;color:#000000;direction:ltr;letter-spacing:0px;line-height:120%;opacity:1&quot;&gt;平台短缺分析&lt;/font&gt;&lt;/p&gt;&lt;/div&gt;" tags="Background" id="62">
          <mxCell style="verticalAlign=middle;align=center;overflow=width;vsdxID=61;fillColor=#FFFFFF;gradientColor=none;shape=stencil(lVJBEoIwDHxNr502cQDPiP9ghiIdkWIBxd9LLUoLiOMtm2y6SboE46ZIa0GANa1WZ3GXWVsQPBAAWRVCy3aICCYE41xpcdKqqzKL69QwTXRRN/NCb/uY6QD2sIhzGgavzNGSr12aGTL32T7swUKkiCMBXML4VikrR3gf0CD0xNmGMGfb0lMdvmziq098i6OIwu4f/U/iPYG7z2yo1QmcY62yty+/kJ+tv9jHF//x60Mw+SWXZWnt5tbn/hpS1puYPAE=);strokeColor=#000000;spacingTop=-3;spacingBottom=-3;spacingLeft=-3;spacingRight=-3;points=[];labelBackgroundColor=none;rounded=0;html=1;whiteSpace=wrap;" parent="1" vertex="1">
            <mxGeometry x="287" y="590" width="120" height="34" as="geometry" />
          </mxCell>
        </UserObject>
        <UserObject label="&lt;div style=&quot;font-size: 1px&quot;&gt;&lt;p style=&quot;text-align:center;margin-left:0;margin-right:0;margin-top:0px;margin-bottom:0px;text-indent:0;vertical-align:middle;direction:ltr;&quot;&gt;&lt;font style=&quot;font-size:14px;font-family:0;color:#000000;direction:ltr;letter-spacing:0px;line-height:120%;opacity:1&quot;&gt;招采环节分析&lt;/font&gt;&lt;/p&gt;&lt;/div&gt;" tags="Background" id="63">
          <mxCell style="verticalAlign=middle;align=center;overflow=width;vsdxID=62;fillColor=#FFFFFF;gradientColor=none;shape=stencil(lVJBEoIwDHxNr502cQDPiP9ghiIdkWIBxd9LLUoLiOMtm2y6SboE46ZIa0GANa1WZ3GXWVsQPBAAWRVCy3aICCYE41xpcdKqqzKL69QwTXRRN/NCb/uY6QD2sIhzGgavzNGSr12aGTL32T7swUKkiCMBXML4VikrR3gf0CD0xNmGMGfb0lMdvmziq098i6OIwu4f/U/iPYG7z2yo1QmcY62yty+/kJ+tv9jHF//x60Mw+SWXZWnt5tbn/hpS1puYPAE=);strokeColor=#000000;spacingTop=-3;spacingBottom=-3;spacingLeft=-3;spacingRight=-3;points=[];labelBackgroundColor=none;rounded=0;html=1;whiteSpace=wrap;" parent="1" vertex="1">
            <mxGeometry x="417" y="590" width="120" height="34" as="geometry" />
          </mxCell>
        </UserObject>
        <UserObject label="" tags="Background" id="64">
          <mxCell style="vsdxID=63;fillColor=#ffe6cc;gradientColor=none;shape=stencil(lVLRDoIwDPyavS5bpwGeEf+DhCGLyHCA4t/LLMIGBONbr73url2JiJsirSUB1rRGX+VTZW1BxIkAqKqQRrVDRERCRJxrIy9Gd1WGuE4t00Y3/bAv9NjHbAewFyKgQfRJnJF779LMcrlP9mEPCDk9wEgAlzC+VarK0Y1Cegw9bbYjzNkP6akO24P44jN9NBNQ4P/IT4mvAXechadtB/OuNtn7i1/JL6ZfzeOL7//5EMzHkquyxFtz68vjGlJ4mCJ5Aw==);strokeColor=#000000;spacingTop=-3;spacingBottom=-3;spacingLeft=-3;spacingRight=-3;points=[];labelBackgroundColor=none;rounded=0;html=1;whiteSpace=wrap;" parent="1" vertex="1">
            <mxGeometry x="557" y="496" width="282" height="143" as="geometry" />
          </mxCell>
        </UserObject>
        <UserObject label="&lt;div style=&quot;font-size: 1px&quot;&gt;&lt;p style=&quot;text-align:center;margin-left:0;margin-right:0;margin-top:0px;margin-bottom:0px;text-indent:0;vertical-align:middle;direction:ltr;&quot;&gt;&lt;font style=&quot;font-size:18px;font-family:0;color:#000000;direction:ltr;letter-spacing:0px;line-height:120%;opacity:1&quot;&gt;&lt;b&gt;数据共享&lt;/b&gt;&lt;/font&gt;&lt;/p&gt;&lt;/div&gt;" tags="Background" id="65">
          <mxCell style="verticalAlign=middle;align=center;overflow=width;vsdxID=64;fillColor=none;gradientColor=none;shape=stencil(nZBLDoAgDAVP0z3SIyjeg0SURgWD+Lu9EGL8xBW7N828Ji1gOWs5KeBs9s72aqPGa8AKOCejlSMfEqAALFvrVOfsYprEk4xmTKNd44Y99VhscHY8qU7iQOYhFixbvfhXzlZfYgj3hQG+54dReh2KEw==);strokeColor=none;strokeWidth=0;spacingTop=-3;spacingBottom=-3;spacingLeft=-3;spacingRight=-3;points=[];labelBackgroundColor=none;rounded=0;html=1;whiteSpace=wrap;" parent="1" vertex="1">
            <mxGeometry x="632" y="496" width="160" height="40" as="geometry" />
          </mxCell>
        </UserObject>
        <UserObject label="&lt;div style=&quot;font-size: 1px&quot;&gt;&lt;p style=&quot;text-align:center;margin-left:0;margin-right:0;margin-top:0px;margin-bottom:0px;text-indent:0;vertical-align:middle;direction:ltr;&quot;&gt;&lt;font style=&quot;font-size:14px;font-family:0;color:#000000;direction:ltr;letter-spacing:0px;line-height:120%;opacity:1&quot;&gt;机构及产品数据共享联动&lt;/font&gt;&lt;/p&gt;&lt;/div&gt;" tags="Background" id="66">
          <mxCell style="verticalAlign=middle;align=center;overflow=width;vsdxID=65;fillColor=#FFFFFF;gradientColor=none;shape=stencil(lZLbDoIwDIafZrfLaBMJ14jvQcKQRWQ4QPHtZRZlm2SJdz183d92ZZgPTdlLBmIYjb7Ih6rGhuGRAaiukUaNi8WwYJjX2siz0VNXkd+XlrTWVd/tCzPVCVsB4klexgW+Aydib1NZWTbxYd+dgVzkiCsALrC+1arO0c0O/JB62iIinIi49JaH/UF88Q1facGz9B/5b+DTgDtO0NNuB86udun44n/kw+nDeXzx+J8vxnYstWpbujU3Hx7XEqLDxOIF);strokeColor=#000000;spacingTop=-3;spacingBottom=-3;spacingLeft=-3;spacingRight=-3;points=[];labelBackgroundColor=none;rounded=0;html=1;whiteSpace=wrap;" parent="1" vertex="1">
            <mxGeometry x="574" y="527" width="120" height="44" as="geometry" />
          </mxCell>
        </UserObject>
        <UserObject label="&lt;div style=&quot;font-size: 1px&quot;&gt;&lt;p style=&quot;text-align:center;margin-left:0;margin-right:0;margin-top:0px;margin-bottom:0px;text-indent:0;vertical-align:middle;direction:ltr;&quot;&gt;&lt;font style=&quot;font-size:14px;font-family:0;color:#000000;direction:ltr;letter-spacing:0px;line-height:120%;opacity:1&quot;&gt;药品和医用耗材价格共享联动&lt;/font&gt;&lt;/p&gt;&lt;/div&gt;" tags="Background" id="67">
          <mxCell style="verticalAlign=middle;align=center;overflow=width;vsdxID=66;fillColor=#FFFFFF;gradientColor=none;shape=stencil(lZLbDoIwDIafZrdL6QyEa8T3INmQRWQ4QPHtZQ5lm2SJdz183d92JawYmqoXBGEYtbqIh+RjQ9iRIMquEVqOi0VYSVhRKy3OWk0dt35fGdJYV3U3L8y2DkwFwtN6OQX2Dpwse5sqbtjEh313RusyiukKoAusb7Wyc3TzlGYHTxsiwgnEpbc87g/ii2/4SgPNs3/kv4FPA+44QU+7HTi72qXji/+RD6cP5/HF43++GNux1LJt7a25+fC4lpA9TFa+AA==);strokeColor=#000000;spacingTop=-3;spacingBottom=-3;spacingLeft=-3;spacingRight=-3;points=[];labelBackgroundColor=none;rounded=0;html=1;whiteSpace=wrap;" parent="1" vertex="1">
            <mxGeometry x="706" y="527" width="122" height="44" as="geometry" />
          </mxCell>
        </UserObject>
        <UserObject label="&lt;div style=&quot;font-size: 1px&quot;&gt;&lt;p style=&quot;text-align:center;margin-left:0;margin-right:0;margin-top:0px;margin-bottom:0px;text-indent:0;vertical-align:middle;direction:ltr;&quot;&gt;&lt;font style=&quot;font-size:14px;font-family:0;color:#000000;direction:ltr;letter-spacing:0px;line-height:120%;opacity:1&quot;&gt;药品和医用耗材目录共享联动&lt;/font&gt;&lt;/p&gt;&lt;/div&gt;" tags="Background" id="68">
          <mxCell style="verticalAlign=middle;align=center;overflow=width;vsdxID=67;fillColor=#FFFFFF;gradientColor=none;shape=stencil(lVLRDoIwDPyavS6jNSjPiP9BwpBFZDhB8e9lFmUDssS3XnvdXbsyTO9V3koG4t4ZfZFPVXQVwyMDUE0ljerGiGHGMC21kWej+6Yg3OaWaaOrftgXBuoTtgPEi9CBJ/EncSLurc8Ly418sg8HIIgccSKAS5jeqlXj6CYxj/eetggIRyIsPddhexBffKZPZiIudv/I/xJfA+44C0+bDpxdbbLDi1/JL6ZfzeOLh/98DOZjKVVd06259eVxjSk6TMze);strokeColor=#000000;spacingTop=-3;spacingBottom=-3;spacingLeft=-3;spacingRight=-3;points=[];labelBackgroundColor=none;rounded=0;html=1;whiteSpace=wrap;" parent="1" vertex="1">
            <mxGeometry x="574" y="580" width="120" height="44" as="geometry" />
          </mxCell>
        </UserObject>
        <UserObject label="&lt;div style=&quot;font-size: 1px&quot;&gt;&lt;p style=&quot;text-align:center;margin-left:0;margin-right:0;margin-top:0px;margin-bottom:0px;text-indent:0;vertical-align:middle;direction:ltr;&quot;&gt;&lt;font style=&quot;font-size:14px;font-family:0;color:#000000;direction:ltr;letter-spacing:0px;line-height:120%;opacity:1&quot;&gt;配送数据共享联动&lt;/font&gt;&lt;/p&gt;&lt;/div&gt;" tags="Background" id="69">
          <mxCell style="verticalAlign=middle;align=center;overflow=width;vsdxID=68;fillColor=#FFFFFF;gradientColor=none;shape=stencil(lVLRDoIwDPyavS5bh0SeEf+DhCGLyHCA4t/LLMoGZIlvvfa6u3YlIu2qvJUEWNcbfZVPVfQVEScCoJpKGtVPEREZEWmpjbwYPTQF4ja3TBvd9MO+MGIfsx3AXoiONIk/iTNy70NeWC73yT4cAaGgUTITwCXMb9WqcXSTmB64p80CwpyFpZc67A/iiy/02QynLPpH/pf4GnDHWXnadeDsapcdXvxGfjX9Zh5fPPznU7AcS6nqGm/Nra+Pa0rhYYrsDQ==);strokeColor=#000000;spacingTop=-3;spacingBottom=-3;spacingLeft=-3;spacingRight=-3;points=[];labelBackgroundColor=none;rounded=0;html=1;whiteSpace=wrap;" parent="1" vertex="1">
            <mxGeometry x="708" y="580" width="114" height="44" as="geometry" />
          </mxCell>
        </UserObject>
        <UserObject label="" tags="Background" id="70">
          <mxCell style="vsdxID=69;fillColor=#ffe6cc;gradientColor=none;shape=stencil(jVLbEoIgEP0aXp11eSifzf7DGTGZSAy19O+DqARkmN72cpZzdjmElmNXD4wgjJOSV/bkzdQReiKIvO+Y4pOOCK0ILVup2EXJuW9sPtQGaaKbfJgXFjsHZgJhtRlmgO/C2WLvc90YbO6D/XTBYBhWdAGftwTvHd7ikBVHjxsSxDmkqbd+qCVKvsFDMX/S/wpfAe46gaaoAudWUXT68Dv6YPvdPj55+s91sJml5UJYr7n90Fy6ZI1Jqxc=);strokeColor=#000000;spacingTop=-3;spacingBottom=-3;spacingLeft=-3;spacingRight=-3;points=[];labelBackgroundColor=none;rounded=0;html=1;whiteSpace=wrap;" parent="1" vertex="1">
            <mxGeometry x="641" y="904" width="198" height="198" as="geometry" />
          </mxCell>
        </UserObject>
        <UserObject label="&lt;div style=&quot;font-size: 1px&quot;&gt;&lt;p style=&quot;text-align:center;margin-left:0;margin-right:0;margin-top:0px;margin-bottom:0px;text-indent:0;vertical-align:middle;direction:ltr;&quot;&gt;&lt;font style=&quot;font-size:18px;font-family:0;color:#000000;direction:ltr;letter-spacing:0px;line-height:120%;opacity:1&quot;&gt;&lt;b&gt;数据同步&lt;/b&gt;&lt;/font&gt;&lt;/p&gt;&lt;/div&gt;" tags="Background" id="71">
          <mxCell style="verticalAlign=middle;align=center;overflow=width;vsdxID=70;fillColor=none;gradientColor=none;shape=stencil(nZBLDoAgDAVP0z3SIyjeg0SURgWD+Lu9EGL8xBW7N828Ji1gOWs5KeBs9s72aqPGa8AKOCejlSMfEqAALFvrVOfsYprEk4xmTKNd44Y99VhscHY8qU7iQOYhFixbvfhXzlZfYgj3hQG+54dReh2KEw==);strokeColor=none;strokeWidth=0;spacingTop=-3;spacingBottom=-3;spacingLeft=-3;spacingRight=-3;points=[];labelBackgroundColor=none;rounded=0;html=1;whiteSpace=wrap;" parent="1" vertex="1">
            <mxGeometry x="663" y="901" width="160" height="40" as="geometry" />
          </mxCell>
        </UserObject>
        <UserObject label="&lt;div style=&quot;font-size: 1px&quot;&gt;&lt;p style=&quot;text-align:center;margin-left:0;margin-right:0;margin-top:0px;margin-bottom:0px;text-indent:0;vertical-align:middle;direction:ltr;&quot;&gt;&lt;font style=&quot;font-size:14px;font-family:0;color:#000000;direction:ltr;letter-spacing:0px;line-height:120%;opacity:1&quot;&gt;数据校验评估&lt;/font&gt;&lt;/p&gt;&lt;/div&gt;" tags="Background" id="72">
          <mxCell style="verticalAlign=middle;align=center;overflow=width;vsdxID=71;fillColor=#FFFFFF;gradientColor=none;shape=stencil(lZLdDoMgDIWfhnss4cJr596DRJxkDhzqpm8/Sdn42UKyu5720I9CCWvmQUySAJ0Xa67yqbplIOxEAJQepFXLERHWEtb0xsqLNavuUE/COV10Mw/XYcNz1J0AuqOqUJ7ReV9F55xVak3lBii5r0Jc9Y1GpSNkzRNmCVnRMjTU4dcAKTeY/T3+In8Sb3bNc3SBnY6cWcvv/AXORq4L2NLvHkFYil6NI+5UXM+X6EjhArL2BQ==);strokeColor=#000000;spacingTop=-3;spacingBottom=-3;spacingLeft=-3;spacingRight=-3;points=[];labelBackgroundColor=none;rounded=0;html=1;whiteSpace=wrap;" parent="1" vertex="1">
            <mxGeometry x="652" y="961" width="80" height="40" as="geometry" />
          </mxCell>
        </UserObject>
        <UserObject label="&lt;div style=&quot;font-size: 1px&quot;&gt;&lt;p style=&quot;text-align:center;margin-left:0;margin-right:0;margin-top:0px;margin-bottom:0px;text-indent:0;vertical-align:middle;direction:ltr;&quot;&gt;&lt;font style=&quot;font-size:14px;font-family:0;color:#000000;direction:ltr;letter-spacing:0px;line-height:120%;opacity:1&quot;&gt;数据比对匹配&lt;/font&gt;&lt;/p&gt;&lt;/div&gt;" tags="Background" id="73">
          <mxCell style="verticalAlign=middle;align=center;overflow=width;vsdxID=72;fillColor=#FFFFFF;gradientColor=none;shape=stencil(lZLdDoMgDIWfhnss4cJr596DRJxkDhzqpm8/Sdn42UKyu5720I9CCWvmQUySAJ0Xa67yqbplIOxEAJQepFXLERHWEtb0xsqLNavuUE/COV10Mw/XYcNz1J0AuqOqUJ7ReV9F55xVak3lBii5r0Jc9Y1GpSNkzRNmCVnRMjTU4dcAKTeY/T3+In8Sb3bNc3SBnY6cWcvv/AXORq4L2NLvHkFYil6NI+5UXM+X6EjhArL2BQ==);strokeColor=#000000;spacingTop=-3;spacingBottom=-3;spacingLeft=-3;spacingRight=-3;points=[];labelBackgroundColor=none;rounded=0;html=1;whiteSpace=wrap;" parent="1" vertex="1">
            <mxGeometry x="652" y="1012" width="80" height="40" as="geometry" />
          </mxCell>
        </UserObject>
        <UserObject label="&lt;div style=&quot;font-size: 1px&quot;&gt;&lt;p style=&quot;text-align:center;margin-left:0;margin-right:0;margin-top:0px;margin-bottom:0px;text-indent:0;vertical-align:middle;direction:ltr;&quot;&gt;&lt;font style=&quot;font-size:14px;font-family:0;color:#000000;direction:ltr;letter-spacing:0px;line-height:120%;opacity:1&quot;&gt;招采经办数据同步&lt;/font&gt;&lt;/p&gt;&lt;/div&gt;" tags="Background" id="74">
          <mxCell style="verticalAlign=middle;align=center;overflow=width;vsdxID=73;fillColor=#FFFFFF;gradientColor=none;shape=stencil(lZLdDoMgDIWfhnss4cJr596DRJxkDhzqpm8/Sdn42UKyu5720I9CCWvmQUySAJ0Xa67yqbplIOxEAJQepFXLERHWEtb0xsqLNavuUE/COV10Mw/XYcNz1J0AuqOqUJ7ReV9F55xVak3lBii5r0Jc9Y1GpSNkzRNmCVnRMjTU4dcAKTeY/T3+In8Sb3bNc3SBnY6cWcvv/AXORq4L2NLvHkFYil6NI+5UXM+X6EjhArL2BQ==);strokeColor=#000000;spacingTop=-3;spacingBottom=-3;spacingLeft=-3;spacingRight=-3;points=[];labelBackgroundColor=none;rounded=0;html=1;whiteSpace=wrap;" parent="1" vertex="1">
            <mxGeometry x="748" y="1012" width="80" height="40" as="geometry" />
          </mxCell>
        </UserObject>
        <UserObject label="&lt;div style=&quot;font-size: 1px&quot;&gt;&lt;p style=&quot;text-align:center;margin-left:0;margin-right:0;margin-top:0px;margin-bottom:0px;text-indent:0;vertical-align:middle;direction:ltr;&quot;&gt;&lt;font style=&quot;font-size:14px;font-family:0;color:#000000;direction:ltr;letter-spacing:0px;line-height:120%;opacity:1&quot;&gt;政策文件数据管理&lt;/font&gt;&lt;/p&gt;&lt;/div&gt;" tags="Background" id="75">
          <mxCell style="verticalAlign=middle;align=center;overflow=width;vsdxID=74;fillColor=#FFFFFF;gradientColor=none;shape=stencil(lZLdDoMgDIWfhnss4cJr596DRJxkDhzqpm8/Sdn42UKyu5720I9CCWvmQUySAJ0Xa67yqbplIOxEAJQepFXLERHWEtb0xsqLNavuUE/COV10Mw/XYcNz1J0AuqOqUJ7ReV9F55xVak3lBii5r0Jc9Y1GpSNkzRNmCVnRMjTU4dcAKTeY/T3+In8Sb3bNc3SBnY6cWcvv/AXORq4L2NLvHkFYil6NI+5UXM+X6EjhArL2BQ==);strokeColor=#000000;spacingTop=-3;spacingBottom=-3;spacingLeft=-3;spacingRight=-3;points=[];labelBackgroundColor=none;rounded=0;html=1;whiteSpace=wrap;" parent="1" vertex="1">
            <mxGeometry x="748" y="961" width="80" height="40" as="geometry" />
          </mxCell>
        </UserObject>
        <UserObject label="" tags="Background" id="76">
          <mxCell style="vsdxID=75;fillColor=#cce5ff;gradientColor=none;shape=stencil(lVLLDoMgEPwargaWpoaztf9hIhZSKxa1tX9fKD5ADUlv+5hlZpZFNOtE0XIEuOu1uvO3LHuB6AUByEZwLXsTIZojmlVK85tWQ1O6vC0s0kYP9bIvjG4O2wnAH5dBwsivcHXY51CUFktCcJiOMA/DaQKAD5jeqmXj8bI0Sc8BN44QExynXvtwbCQkX+GLGMz+oV8KswDfzkbToQJvV4fo+OJ39Bv3Oz8hefzPTbAeSyXr2t2a398elym5w6T5Fw==);strokeColor=#000000;spacingTop=-3;spacingBottom=-3;spacingLeft=-3;spacingRight=-3;points=[];labelBackgroundColor=none;rounded=0;html=1;whiteSpace=wrap;" parent="1" vertex="1">
            <mxGeometry x="82" y="502" width="178" height="137" as="geometry" />
          </mxCell>
        </UserObject>
        <UserObject label="&lt;div style=&quot;font-size: 1px&quot;&gt;&lt;p style=&quot;text-align:center;margin-left:0;margin-right:0;margin-top:0px;margin-bottom:0px;text-indent:0;vertical-align:middle;direction:ltr;&quot;&gt;&lt;font style=&quot;font-size:18px;font-family:0;color:#000000;direction:ltr;letter-spacing:0px;line-height:120%;opacity:1&quot;&gt;&lt;b&gt;招标管理&lt;/b&gt;&lt;/font&gt;&lt;/p&gt;&lt;/div&gt;" tags="Background" id="77">
          <mxCell style="verticalAlign=middle;align=center;overflow=width;vsdxID=76;fillColor=none;gradientColor=none;shape=stencil(nZBLDoAgDAVP0z3SIyjeg0SURgWD+Lu9EGL8xBW7N828Ji1gOWs5KeBs9s72aqPGa8AKOCejlSMfEqAALFvrVOfsYprEk4xmTKNd44Y99VhscHY8qU7iQOYhFixbvfhXzlZfYgj3hQG+54dReh2KEw==);strokeColor=none;strokeWidth=0;spacingTop=-3;spacingBottom=-3;spacingLeft=-3;spacingRight=-3;points=[];labelBackgroundColor=none;rounded=0;html=1;whiteSpace=wrap;" parent="1" vertex="1">
            <mxGeometry x="90" y="496" width="160" height="40" as="geometry" />
          </mxCell>
        </UserObject>
        <UserObject label="&lt;div style=&quot;font-size: 1px&quot;&gt;&lt;p style=&quot;text-align:center;margin-left:0;margin-right:0;margin-top:0px;margin-bottom:0px;text-indent:0;vertical-align:middle;direction:ltr;&quot;&gt;&lt;font style=&quot;font-size:14px;font-family:0;color:#000000;direction:ltr;letter-spacing:0px;line-height:120%;opacity:1&quot;&gt;组织招标&lt;/font&gt;&lt;/p&gt;&lt;/div&gt;" tags="Background" id="78">
          <mxCell style="verticalAlign=middle;align=center;overflow=width;vsdxID=77;fillColor=#FFFFFF;gradientColor=none;shape=stencil(lVJBEoIwDHxNr502dQTOiP9ghiIdEbCA4u+lBm0LiOMtm910kzRExG2RNpIAaztdn+VdZV1BxIEAqKqQWnVjRERCRJzXWp503VcZ4iY1ShNd6pt5YcA6ZiqAPRBxToP9K3NE8bVPMyPmvtqHAyAEGk08uPz0VKkqxzcKKPes2YYtZ9vGlocvc/jmVo84DCns/vH/JN4dOOPMelptwG5qVby99YX5bPjFNL73jx8fA3sruSpLPDWXn9/WmMK7FMkT);strokeColor=#000000;spacingTop=-3;spacingBottom=-3;spacingLeft=-3;spacingRight=-3;points=[];labelBackgroundColor=none;rounded=0;html=1;whiteSpace=wrap;" parent="1" vertex="1">
            <mxGeometry x="101" y="546" width="138" height="34" as="geometry" />
          </mxCell>
        </UserObject>
        <UserObject label="&lt;div style=&quot;font-size: 1px&quot;&gt;&lt;p style=&quot;text-align:center;margin-left:0;margin-right:0;margin-top:0px;margin-bottom:0px;text-indent:0;vertical-align:middle;direction:ltr;&quot;&gt;&lt;font style=&quot;font-size:14px;font-family:0;color:#000000;direction:ltr;letter-spacing:0px;line-height:120%;opacity:1&quot;&gt;流程配置化管理&lt;/font&gt;&lt;/p&gt;&lt;/div&gt;" tags="Background" id="79">
          <mxCell style="verticalAlign=middle;align=center;overflow=width;vsdxID=78;fillColor=#FFFFFF;gradientColor=none;shape=stencil(lVJBEoIwDHxNr502dQTOiP9ghiIdEbCA4u+lBm0LiOMtm910kzRExG2RNpIAaztdn+VdZV1BxIEAqKqQWnVjRERCRJzXWp503VcZ4iY1ShNd6pt5YcA6ZiqAPRBxToP9K3NE8bVPMyPmvtqHAyAEGk08uPz0VKkqxzcKKPes2YYtZ9vGlocvc/jmVo84DCns/vH/JN4dOOPMelptwG5qVby99YX5bPjFNL73jx8fA3sruSpLPDWXn9/WmMK7FMkT);strokeColor=#000000;spacingTop=-3;spacingBottom=-3;spacingLeft=-3;spacingRight=-3;points=[];labelBackgroundColor=none;rounded=0;html=1;whiteSpace=wrap;" parent="1" vertex="1">
            <mxGeometry x="101" y="595" width="138" height="34" as="geometry" />
          </mxCell>
        </UserObject>
        <UserObject label="&lt;div style=&quot;font-size: 1px&quot;&gt;&lt;p style=&quot;text-align:center;margin-left:0;margin-right:0;margin-top:0px;margin-bottom:0px;text-indent:0;vertical-align:middle;direction:ltr;&quot;&gt;&lt;font style=&quot;font-size:18px;font-family:0;color:#000000;direction:ltr;letter-spacing:0px;line-height:120%;opacity:1&quot;&gt;&lt;b&gt;实时查询&lt;/b&gt;&lt;/font&gt;&lt;/p&gt;&lt;/div&gt;" tags="Background" id="80">
          <mxCell style="verticalAlign=middle;align=center;overflow=width;vsdxID=79;fillColor=#ffe6cc;gradientColor=none;shape=stencil(lZLbDoIwDIafZrfL6JDANeJ7kDBkERkOUHx7mUXYJsF418PX/W1XwtOuyltBgHW9VhfxkEVfEX4kALKphJb9ZBGeEZ6WSouzVkNToN/mhjTWVd3NCyPWMVMB7IleQqPwHTghexvywrCBC7vuCOgGNIQZABuY36plY+kmMT3EjjbbEQ7YD+klD9uDuOIrPtOM8ugf+SXwacAex+tpu4N1V5v0/uK/5P3p/Xlc8f0/n4z1WEpZ13hrdt4/rimEh8mzFw==);strokeColor=#000000;spacingTop=-3;spacingBottom=-3;spacingLeft=-3;spacingRight=-3;points=[];labelBackgroundColor=none;rounded=0;html=1;whiteSpace=wrap;" parent="1" vertex="1">
            <mxGeometry x="557" y="444" width="282" height="41" as="geometry" />
          </mxCell>
        </UserObject>
        <UserObject label="&lt;div style=&quot;font-size: 1px&quot;&gt;&lt;p style=&quot;text-align:center;margin-left:0;margin-right:0;margin-top:0px;margin-bottom:0px;text-indent:0;vertical-align:middle;direction:ltr;&quot;&gt;&lt;font style=&quot;font-size:18px;font-family:0;color:#000000;direction:ltr;letter-spacing:0px;line-height:120%;opacity:1&quot;&gt;&lt;b&gt;监测中心&lt;/b&gt;&lt;/font&gt;&lt;/p&gt;&lt;/div&gt;" tags="Background" id="81">
          <mxCell style="verticalAlign=middle;align=center;overflow=width;vsdxID=80;fillColor=#cce5ff;gradientColor=none;shape=stencil(lVLLEoIwDPyaXjtt6iicEf+DGYp0RIrlIf691CC0wOB4yyab7iYNEVGdJ5UkwOrG6Jt8qrTJiTgTAFXm0qhmiIiIiYgybeTV6LZMEVeJZdrorjv7Qo99zHYAeyEK6OnwSVyQ+2iT1HK5T/ZhDwg5DcORAC5hfKtQpaMbBpRxT5vtCHP2Q3qqw/YgvvhMH81wCsd/5KfE14A7zsLTtoN5V5vs/cWv5BfTr+bxxff/fAjmY8lUUeCtufXlcQ0pPEwRvwE=);strokeColor=#000000;spacingTop=-3;spacingBottom=-3;spacingLeft=-3;spacingRight=-3;points=[];labelBackgroundColor=none;rounded=0;html=1;whiteSpace=wrap;" parent="1" vertex="1">
            <mxGeometry x="79" y="699" width="201" height="45" as="geometry" />
          </mxCell>
        </UserObject>
        <UserObject label="&lt;div style=&quot;font-size: 1px&quot;&gt;&lt;p style=&quot;text-align:center;margin-left:0;margin-right:0;margin-top:0px;margin-bottom:0px;text-indent:0;vertical-align:middle;direction:ltr;&quot;&gt;&lt;font style=&quot;font-size:18px;font-family:0;color:#000000;direction:ltr;letter-spacing:0px;line-height:120%;opacity:1&quot;&gt;&lt;b&gt;审核管理&lt;/b&gt;&lt;/font&gt;&lt;/p&gt;&lt;/div&gt;" tags="Background" id="82">
          <mxCell style="verticalAlign=middle;align=center;overflow=width;vsdxID=81;fillColor=#cce5ff;gradientColor=none;shape=stencil(lVLbDoIwDP2avS5bZwSfEf+DhCGLyHBcxL+XWZQNyBLfetrTndOuRCRtmTWSAGs7o2/yqfKuJOJMAFRdSqO6KSIiJSIptJFXo/s6R9xklmmjux7sCyP2MdsB7IUoptHhk7gg99FnueVyn+zDERAC5TATwCXMb1WqdnRPEY1jT5sFhDkLSy912B/EF1/osxlO4fiP/C/xNeCOs/K068DZ1S47vPiN/Gr6zTy+ePjPp2A5lkJVFd6aW18f15TCwxTpGw==);strokeColor=#000000;spacingTop=-3;spacingBottom=-3;spacingLeft=-3;spacingRight=-3;points=[];labelBackgroundColor=none;rounded=0;html=1;whiteSpace=wrap;" parent="1" vertex="1">
            <mxGeometry x="301" y="699" width="189" height="45" as="geometry" />
          </mxCell>
        </UserObject>
        <UserObject label="&lt;div style=&quot;font-size: 1px&quot;&gt;&lt;p style=&quot;text-align:center;margin-left:0;margin-right:0;margin-top:0px;margin-bottom:0px;text-indent:0;vertical-align:middle;direction:ltr;&quot;&gt;&lt;font style=&quot;font-size:18px;font-family:0;color:#000000;direction:ltr;letter-spacing:0px;line-height:120%;opacity:1&quot;&gt;&lt;b&gt;协议管理&lt;/b&gt;&lt;/font&gt;&lt;/p&gt;&lt;/div&gt;" tags="Background" id="83">
          <mxCell style="verticalAlign=middle;align=center;overflow=width;vsdxID=82;fillColor=#cce5ff;gradientColor=none;shape=stencil(lZLREoIgEEW/hlcGlybz2ew/nBGTycQQy/4+aS2BHGZ627vc5ezCEp4PTdkLAmwwWl3EQ1amIfxIAGTXCC3NHBFeEJ7XSouzVmNXoe5L67TRVd3tDRPWMVsB7Ikqo/DWJ7TexrKy1sT3+nIClEBhtxjANSx3tbJzsFlK072HZhFwwuLo9Rw25/DZq3sxM3r4B/5NfPDuMEFHmw04L7Xpjj/7Dz6cPRjHZ0f/ew7WPall2+KauefhXs0p3ElevAA=);strokeColor=#000000;spacingTop=-3;spacingBottom=-3;spacingLeft=-3;spacingRight=-3;points=[];labelBackgroundColor=none;rounded=0;html=1;whiteSpace=wrap;" parent="1" vertex="1">
            <mxGeometry x="82" y="447" width="178" height="43" as="geometry" />
          </mxCell>
        </UserObject>
        <UserObject label="" tags="Background" id="84">
          <mxCell style="vsdxID=83;fillColor=#cce5ff;gradientColor=none;shape=stencil(lZLREoIgEEW/hlcGlpry2ew/nBGTycQQzf4+CUogh5ne9i53ObuwiOVDU/YcARm0klf+EJVuEDshANE1XAm9RIgViOW1VPyi5NhVVvelcZroJidzw2zriKkA8rSK4sNbn631PpaVsdLQG8oZnMT7zBnAN7i7WtF52CzDOxqgSQJMSRq9nsPmHCF7dbtejpj9A/8mPnh/mKijzQa8l9p0p5/9Bx/NHo8TsVP/vQTrntSibe2a+efxXi0pu5OseAE=);strokeColor=#000000;spacingTop=-3;spacingBottom=-3;spacingLeft=-3;spacingRight=-3;points=[];labelBackgroundColor=none;rounded=0;html=1;whiteSpace=wrap;" parent="1" vertex="1">
            <mxGeometry x="82" y="194" width="678" height="235" as="geometry" />
          </mxCell>
        </UserObject>
        <UserObject label="&lt;div style=&quot;font-size: 1px&quot;&gt;&lt;p style=&quot;text-align:center;margin-left:0;margin-right:0;margin-top:0px;margin-bottom:0px;text-indent:0;vertical-align:middle;direction:ltr;&quot;&gt;&lt;font style=&quot;font-size:14px;font-family:0;color:#000000;direction:ltr;letter-spacing:0px;line-height:120%;opacity:1&quot;&gt;项目管理API集&lt;/font&gt;&lt;/p&gt;&lt;/div&gt;" tags="Background" id="85">
          <mxCell style="verticalAlign=middle;align=center;overflow=width;vsdxID=84;fillColor=#FFFFFF;gradientColor=none;shape=stencil(lVJBEoIwDHxNr53QOChnxH8wQ5GOSLGC4u+lBqUFxPGWTTbdJF2G8bVIa8kEXBujT/KusqZguGdCqKqQRjV9xDBhGOfayKPRbZURrlPLtNFZ3+wLHfWB7RDwIBQAj8JX5kDkS5tmlhz4bB92giByxIEgXMLwVqkqRzgKebj1xGFFOIB16bEuvmziq498wruIw+Yf/U/iPYG7z2SoxQmcYy2y1y8/k5+sP9vHF//x630w+iVXZUl2c+tTf/Up8iYmTw==);strokeColor=#000000;spacingTop=-3;spacingBottom=-3;spacingLeft=-3;spacingRight=-3;points=[];labelBackgroundColor=none;rounded=0;html=1;whiteSpace=wrap;" parent="1" vertex="1">
            <mxGeometry x="95" y="210" width="120" height="36" as="geometry" />
          </mxCell>
        </UserObject>
        <UserObject label="&lt;div style=&quot;font-size: 1px&quot;&gt;&lt;p style=&quot;text-align:center;margin-left:0;margin-right:0;margin-top:0px;margin-bottom:0px;text-indent:0;vertical-align:middle;direction:ltr;&quot;&gt;&lt;font style=&quot;font-size:14px;font-family:0;color:#000000;direction:ltr;letter-spacing:0px;line-height:120%;opacity:1&quot;&gt;价格管理API集&lt;/font&gt;&lt;/p&gt;&lt;/div&gt;" tags="Background" id="86">
          <mxCell style="verticalAlign=middle;align=center;overflow=width;vsdxID=85;fillColor=#FFFFFF;gradientColor=none;shape=stencil(lVJBEoIwDHxNr53QOChnxH8wQ5GOSLGC4u+lBqUFxPGWTTbdJF2G8bVIa8kEXBujT/KusqZguGdCqKqQRjV9xDBhGOfayKPRbZURrlPLtNFZ3+wLHfWB7RDwIBQAj8JX5kDkS5tmlhz4bB92giByxIEgXMLwVqkqRzgKebj1xGFFOIB16bEuvmziq498wruIw+Yf/U/iPYG7z2SoxQmcYy2y1y8/k5+sP9vHF//x630w+iVXZUl2c+tTf/Up8iYmTw==);strokeColor=#000000;spacingTop=-3;spacingBottom=-3;spacingLeft=-3;spacingRight=-3;points=[];labelBackgroundColor=none;rounded=0;html=1;whiteSpace=wrap;" parent="1" vertex="1">
            <mxGeometry x="95" y="253" width="120" height="36" as="geometry" />
          </mxCell>
        </UserObject>
        <UserObject label="&lt;div style=&quot;font-size: 1px&quot;&gt;&lt;p style=&quot;text-align:center;margin-left:0;margin-right:0;margin-top:0px;margin-bottom:0px;text-indent:0;vertical-align:middle;direction:ltr;&quot;&gt;&lt;font style=&quot;font-size:17px;font-family:0;color:#000000;direction:ltr;letter-spacing:0px;line-height:120%;opacity:1&quot;&gt;移动端APP&lt;/font&gt;&lt;/p&gt;&lt;/div&gt;" tags="Background" id="87">
          <mxCell style="verticalAlign=middle;align=center;overflow=width;vsdxID=86;fillColor=#ffffcc;gradientColor=none;shape=stencil(lZLdDoMgDIWfhluCRfdz7fQ9TMRJ5sShbu7tJ6ubwAzJ7nrKKV8LJTzt66ITBFg/aHURD1kONeEnAiDbWmg5zBHhGeFppbQ4azW2JequME4TXdXd3DBhHTMVwJ6oIrp/6xytt7EojTVyva6cAGVCk91iANuw3NXI1sIeYxrHDpoFwBELo9dz2JzDZa/upZcD5f/Av4kP3h7G62izAeulNt3hZ//Be7P747js4H/PwbonlWwaXDP73N+rOYU7ybMX);strokeColor=#000000;spacingTop=-3;spacingBottom=-3;spacingLeft=-3;spacingRight=-3;points=[];labelBackgroundColor=none;rounded=0;html=1;whiteSpace=wrap;" parent="1" vertex="1">
            <mxGeometry x="767" y="194" width="72" height="235" as="geometry" />
          </mxCell>
        </UserObject>
        <UserObject label="&lt;div style=&quot;font-size: 1px&quot;&gt;&lt;p style=&quot;text-align:center;margin-left:0;margin-right:0;margin-top:0px;margin-bottom:0px;text-indent:0;vertical-align:middle;direction:ltr;&quot;&gt;&lt;font style=&quot;font-size:14px;font-family:0;color:#000000;direction:ltr;letter-spacing:0px;line-height:120%;opacity:1&quot;&gt;监测中心API集&lt;/font&gt;&lt;/p&gt;&lt;/div&gt;" tags="Background" id="88">
          <mxCell style="verticalAlign=middle;align=center;overflow=width;vsdxID=87;fillColor=#FFFFFF;gradientColor=none;shape=stencil(lVJBEoIwDHxNr53QOChnxH8wQ5GOSLGC4u+lBqUFxPGWTTbdJF2G8bVIa8kEXBujT/KusqZguGdCqKqQRjV9xDBhGOfayKPRbZURrlPLtNFZ3+wLHfWB7RDwIBQAj8JX5kDkS5tmlhz4bB92giByxIEgXMLwVqkqRzgKebj1xGFFOIB16bEuvmziq498wruIw+Yf/U/iPYG7z2SoxQmcYy2y1y8/k5+sP9vHF//x630w+iVXZUl2c+tTf/Up8iYmTw==);strokeColor=#000000;spacingTop=-3;spacingBottom=-3;spacingLeft=-3;spacingRight=-3;points=[];labelBackgroundColor=none;rounded=0;html=1;whiteSpace=wrap;" parent="1" vertex="1">
            <mxGeometry x="95" y="297" width="120" height="36" as="geometry" />
          </mxCell>
        </UserObject>
        <UserObject label="&lt;div style=&quot;font-size: 1px&quot;&gt;&lt;p style=&quot;text-align:center;margin-left:0;margin-right:0;margin-top:0px;margin-bottom:0px;text-indent:0;vertical-align:middle;direction:ltr;&quot;&gt;&lt;font style=&quot;font-size:14px;font-family:0;color:#000000;direction:ltr;letter-spacing:0px;line-height:120%;opacity:1&quot;&gt;辅助决策管理&lt;br/&gt;&lt;/font&gt;&lt;font style=&quot;font-size:14px;font-family:0;color:#000000;direction:ltr;letter-spacing:0px;line-height:120%;opacity:1&quot;&gt;API集&lt;/font&gt;&lt;/p&gt;&lt;/div&gt;" tags="Background" id="89">
          <mxCell style="verticalAlign=middle;align=center;overflow=width;vsdxID=88;fillColor=#FFFFFF;gradientColor=none;shape=stencil(lVJBEoIwDHxNr53QOChnxH8wQ5GOSLGC4u+lBqUFxPGWTTbdJF2G8bVIa8kEXBujT/KusqZguGdCqKqQRjV9xDBhGOfayKPRbZURrlPLtNFZ3+wLHfWB7RDwIBQAj8JX5kDkS5tmlhz4bB92giByxIEgXMLwVqkqRzgKebj1xGFFOIB16bEuvmziq498wruIw+Yf/U/iPYG7z2SoxQmcYy2y1y8/k5+sP9vHF//x630w+iVXZUl2c+tTf/Up8iYmTw==);strokeColor=#000000;spacingTop=-3;spacingBottom=-3;spacingLeft=-3;spacingRight=-3;points=[];labelBackgroundColor=none;rounded=0;html=1;whiteSpace=wrap;" parent="1" vertex="1">
            <mxGeometry x="95" y="339" width="120" height="36" as="geometry" />
          </mxCell>
        </UserObject>
        <UserObject label="&lt;div style=&quot;font-size: 1px&quot;&gt;&lt;p style=&quot;text-align:center;margin-left:0;margin-right:0;margin-top:0px;margin-bottom:0px;text-indent:0;vertical-align:middle;direction:ltr;&quot;&gt;&lt;font style=&quot;font-size:14px;font-family:0;color:#000000;direction:ltr;letter-spacing:0px;line-height:120%;opacity:1&quot;&gt;审核管理API集&lt;/font&gt;&lt;/p&gt;&lt;/div&gt;" tags="Background" id="90">
          <mxCell style="verticalAlign=middle;align=center;overflow=width;vsdxID=89;fillColor=#FFFFFF;gradientColor=none;shape=stencil(lVJBEoIwDHxNr53QOChnxH8wQ5GOSLGC4u+lBqUFxPGWTTbdJF2G8bVIa8kEXBujT/KusqZguGdCqKqQRjV9xDBhGOfayKPRbZURrlPLtNFZ3+wLHfWB7RDwIBQAj8JX5kDkS5tmlhz4bB92giByxIEgXMLwVqkqRzgKebj1xGFFOIB16bEuvmziq498wruIw+Yf/U/iPYG7z2SoxQmcYy2y1y8/k5+sP9vHF//x630w+iVXZUl2c+tTf/Up8iYmTw==);strokeColor=#000000;spacingTop=-3;spacingBottom=-3;spacingLeft=-3;spacingRight=-3;points=[];labelBackgroundColor=none;rounded=0;html=1;whiteSpace=wrap;" parent="1" vertex="1">
            <mxGeometry x="229" y="210" width="120" height="36" as="geometry" />
          </mxCell>
        </UserObject>
        <UserObject label="&lt;div style=&quot;font-size: 1px&quot;&gt;&lt;p style=&quot;text-align:center;margin-left:0;margin-right:0;margin-top:0px;margin-bottom:0px;text-indent:0;vertical-align:middle;direction:ltr;&quot;&gt;&lt;font style=&quot;font-size:14px;font-family:0;color:#000000;direction:ltr;letter-spacing:0px;line-height:120%;opacity:1&quot;&gt;违规处罚监管&lt;br/&gt;&lt;/font&gt;&lt;font style=&quot;font-size:14px;font-family:0;color:#000000;direction:ltr;letter-spacing:0px;line-height:120%;opacity:1&quot;&gt;API管&lt;/font&gt;&lt;/p&gt;&lt;/div&gt;" tags="Background" id="91">
          <mxCell style="verticalAlign=middle;align=center;overflow=width;vsdxID=90;fillColor=#FFFFFF;gradientColor=none;shape=stencil(lVJBEoIwDHxNr53QOChnxH8wQ5GOSLGC4u+lBqUFxPGWTTbdJF2G8bVIa8kEXBujT/KusqZguGdCqKqQRjV9xDBhGOfayKPRbZURrlPLtNFZ3+wLHfWB7RDwIBQAj8JX5kDkS5tmlhz4bB92giByxIEgXMLwVqkqRzgKebj1xGFFOIB16bEuvmziq498wruIw+Yf/U/iPYG7z2SoxQmcYy2y1y8/k5+sP9vHF//x630w+iVXZUl2c+tTf/Up8iYmTw==);strokeColor=#000000;spacingTop=-3;spacingBottom=-3;spacingLeft=-3;spacingRight=-3;points=[];labelBackgroundColor=none;rounded=0;html=1;whiteSpace=wrap;" parent="1" vertex="1">
            <mxGeometry x="229" y="253" width="120" height="36" as="geometry" />
          </mxCell>
        </UserObject>
        <UserObject label="&lt;div style=&quot;font-size: 1px&quot;&gt;&lt;p style=&quot;text-align:center;margin-left:0;margin-right:0;margin-top:0px;margin-bottom:0px;text-indent:0;vertical-align:middle;direction:ltr;&quot;&gt;&lt;font style=&quot;font-size:14px;font-family:0;color:#000000;direction:ltr;letter-spacing:0px;line-height:120%;opacity:1&quot;&gt;公共服务管理&lt;br/&gt;&lt;/font&gt;&lt;font style=&quot;font-size:14px;font-family:0;color:#000000;direction:ltr;letter-spacing:0px;line-height:120%;opacity:1&quot;&gt;API集&lt;/font&gt;&lt;/p&gt;&lt;/div&gt;" tags="Background" id="92">
          <mxCell style="verticalAlign=middle;align=center;overflow=width;vsdxID=91;fillColor=#FFFFFF;gradientColor=none;shape=stencil(lVJBEoIwDHxNr53QOChnxH8wQ5GOSLGC4u+lBqUFxPGWTTbdJF2G8bVIa8kEXBujT/KusqZguGdCqKqQRjV9xDBhGOfayKPRbZURrlPLtNFZ3+wLHfWB7RDwIBQAj8JX5kDkS5tmlhz4bB92giByxIEgXMLwVqkqRzgKebj1xGFFOIB16bEuvmziq498wruIw+Yf/U/iPYG7z2SoxQmcYy2y1y8/k5+sP9vHF//x630w+iVXZUl2c+tTf/Up8iYmTw==);strokeColor=#000000;spacingTop=-3;spacingBottom=-3;spacingLeft=-3;spacingRight=-3;points=[];labelBackgroundColor=none;rounded=0;html=1;whiteSpace=wrap;" parent="1" vertex="1">
            <mxGeometry x="229" y="297" width="120" height="36" as="geometry" />
          </mxCell>
        </UserObject>
        <UserObject label="&lt;div style=&quot;font-size: 1px&quot;&gt;&lt;p style=&quot;text-align:center;margin-left:0;margin-right:0;margin-top:0px;margin-bottom:0px;text-indent:0;vertical-align:middle;direction:ltr;&quot;&gt;&lt;font style=&quot;font-size:14px;font-family:0;color:#000000;direction:ltr;letter-spacing:0px;line-height:120%;opacity:1&quot;&gt;业务监管API集&lt;/font&gt;&lt;/p&gt;&lt;/div&gt;" tags="Background" id="93">
          <mxCell style="verticalAlign=middle;align=center;overflow=width;vsdxID=92;fillColor=#FFFFFF;gradientColor=none;shape=stencil(lVJBEoIwDHxNr53QOChnxH8wQ5GOSLGC4u+lBqUFxPGWTTbdJF2G8bVIa8kEXBujT/KusqZguGdCqKqQRjV9xDBhGOfayKPRbZURrlPLtNFZ3+wLHfWB7RDwIBQAj8JX5kDkS5tmlhz4bB92giByxIEgXMLwVqkqRzgKebj1xGFFOIB16bEuvmziq498wruIw+Yf/U/iPYG7z2SoxQmcYy2y1y8/k5+sP9vHF//x630w+iVXZUl2c+tTf/Up8iYmTw==);strokeColor=#000000;spacingTop=-3;spacingBottom=-3;spacingLeft=-3;spacingRight=-3;points=[];labelBackgroundColor=none;rounded=0;html=1;whiteSpace=wrap;" parent="1" vertex="1">
            <mxGeometry x="366" y="210" width="120" height="36" as="geometry" />
          </mxCell>
        </UserObject>
        <UserObject label="&lt;div style=&quot;font-size: 1px&quot;&gt;&lt;p style=&quot;text-align:center;margin-left:0;margin-right:0;margin-top:0px;margin-bottom:0px;text-indent:0;vertical-align:middle;direction:ltr;&quot;&gt;&lt;font style=&quot;font-size:14px;font-family:0;color:#000000;direction:ltr;letter-spacing:0px;line-height:120%;opacity:1&quot;&gt;协议管理API集&lt;/font&gt;&lt;/p&gt;&lt;/div&gt;" tags="Background" id="94">
          <mxCell style="verticalAlign=middle;align=center;overflow=width;vsdxID=93;fillColor=#FFFFFF;gradientColor=none;shape=stencil(lVJBEoIwDHxNr53QOChnxH8wQ5GOSLGC4u+lBqUFxPGWTTbdJF2G8bVIa8kEXBujT/KusqZguGdCqKqQRjV9xDBhGOfayKPRbZURrlPLtNFZ3+wLHfWB7RDwIBQAj8JX5kDkS5tmlhz4bB92giByxIEgXMLwVqkqRzgKebj1xGFFOIB16bEuvmziq498wruIw+Yf/U/iPYG7z2SoxQmcYy2y1y8/k5+sP9vHF//x630w+iVXZUl2c+tTf/Up8iYmTw==);strokeColor=#000000;spacingTop=-3;spacingBottom=-3;spacingLeft=-3;spacingRight=-3;points=[];labelBackgroundColor=none;rounded=0;html=1;whiteSpace=wrap;" parent="1" vertex="1">
            <mxGeometry x="366" y="253" width="120" height="36" as="geometry" />
          </mxCell>
        </UserObject>
        <UserObject label="&lt;div style=&quot;font-size: 1px&quot;&gt;&lt;p style=&quot;text-align:center;margin-left:0;margin-right:0;margin-top:0px;margin-bottom:0px;text-indent:0;vertical-align:middle;direction:ltr;&quot;&gt;&lt;font style=&quot;font-size:14px;font-family:0;color:#000000;direction:ltr;letter-spacing:0px;line-height:120%;opacity:1&quot;&gt;价格谈判管理&lt;br/&gt;&lt;/font&gt;&lt;font style=&quot;font-size:14px;font-family:0;color:#000000;direction:ltr;letter-spacing:0px;line-height:120%;opacity:1&quot;&gt;API&lt;/font&gt;&lt;/p&gt;&lt;/div&gt;" tags="Background" id="95">
          <mxCell style="verticalAlign=middle;align=center;overflow=width;vsdxID=94;fillColor=#FFFFFF;gradientColor=none;shape=stencil(lVJBEoIwDHxNr53QOChnxH8wQ5GOSLGC4u+lBqUFxPGWTTbdJF2G8bVIa8kEXBujT/KusqZguGdCqKqQRjV9xDBhGOfayKPRbZURrlPLtNFZ3+wLHfWB7RDwIBQAj8JX5kDkS5tmlhz4bB92giByxIEgXMLwVqkqRzgKebj1xGFFOIB16bEuvmziq498wruIw+Yf/U/iPYG7z2SoxQmcYy2y1y8/k5+sP9vHF//x630w+iVXZUl2c+tTf/Up8iYmTw==);strokeColor=#000000;spacingTop=-3;spacingBottom=-3;spacingLeft=-3;spacingRight=-3;points=[];labelBackgroundColor=none;rounded=0;html=1;whiteSpace=wrap;" parent="1" vertex="1">
            <mxGeometry x="366" y="297" width="120" height="36" as="geometry" />
          </mxCell>
        </UserObject>
        <UserObject label="&lt;div style=&quot;font-size: 1px&quot;&gt;&lt;p style=&quot;text-align:center;margin-left:0;margin-right:0;margin-top:0px;margin-bottom:0px;text-indent:0;vertical-align:middle;direction:ltr;&quot;&gt;&lt;font style=&quot;font-size:14px;font-family:0;color:#000000;direction:ltr;letter-spacing:0px;line-height:120%;opacity:1&quot;&gt;实施招标API&lt;/font&gt;&lt;/p&gt;&lt;/div&gt;" tags="Background" id="96">
          <mxCell style="verticalAlign=middle;align=center;overflow=width;vsdxID=95;fillColor=#FFFFFF;gradientColor=none;shape=stencil(lVJBEoIwDHxNr53QOChnxH8wQ5GOSLGC4u+lBqUFxPGWTTbdJF2G8bVIa8kEXBujT/KusqZguGdCqKqQRjV9xDBhGOfayKPRbZURrlPLtNFZ3+wLHfWB7RDwIBQAj8JX5kDkS5tmlhz4bB92giByxIEgXMLwVqkqRzgKebj1xGFFOIB16bEuvmziq498wruIw+Yf/U/iPYG7z2SoxQmcYy2y1y8/k5+sP9vHF//x630w+iVXZUl2c+tTf/Up8iYmTw==);strokeColor=#000000;spacingTop=-3;spacingBottom=-3;spacingLeft=-3;spacingRight=-3;points=[];labelBackgroundColor=none;rounded=0;html=1;whiteSpace=wrap;" parent="1" vertex="1">
            <mxGeometry x="229" y="339" width="120" height="36" as="geometry" />
          </mxCell>
        </UserObject>
        <UserObject label="&lt;div style=&quot;font-size: 1px&quot;&gt;&lt;p style=&quot;text-align:center;margin-left:0;margin-right:0;margin-top:0px;margin-bottom:0px;text-indent:0;vertical-align:middle;direction:ltr;&quot;&gt;&lt;font style=&quot;font-size:14px;font-family:0;color:#000000;direction:ltr;letter-spacing:0px;line-height:120%;opacity:1&quot;&gt;挂网议价管理&lt;br/&gt;&lt;/font&gt;&lt;font style=&quot;font-size:14px;font-family:0;color:#000000;direction:ltr;letter-spacing:0px;line-height:120%;opacity:1&quot;&gt;API&lt;/font&gt;&lt;/p&gt;&lt;/div&gt;" tags="Background" id="97">
          <mxCell style="verticalAlign=middle;align=center;overflow=width;vsdxID=96;fillColor=#FFFFFF;gradientColor=none;shape=stencil(lVJBEoIwDHxNr53QOChnxH8wQ5GOSLGC4u+lBqUFxPGWTTbdJF2G8bVIa8kEXBujT/KusqZguGdCqKqQRjV9xDBhGOfayKPRbZURrlPLtNFZ3+wLHfWB7RDwIBQAj8JX5kDkS5tmlhz4bB92giByxIEgXMLwVqkqRzgKebj1xGFFOIB16bEuvmziq498wruIw+Yf/U/iPYG7z2SoxQmcYy2y1y8/k5+sP9vHF//x630w+iVXZUl2c+tTf/Up8iYmTw==);strokeColor=#000000;spacingTop=-3;spacingBottom=-3;spacingLeft=-3;spacingRight=-3;points=[];labelBackgroundColor=none;rounded=0;html=1;whiteSpace=wrap;" parent="1" vertex="1">
            <mxGeometry x="366" y="339" width="120" height="36" as="geometry" />
          </mxCell>
        </UserObject>
        <UserObject label="&lt;div style=&quot;font-size: 1px&quot;&gt;&lt;p style=&quot;text-align:center;margin-left:0;margin-right:0;margin-top:0px;margin-bottom:0px;text-indent:0;vertical-align:middle;direction:ltr;&quot;&gt;&lt;font style=&quot;font-size:14px;font-family:0;color:#000000;direction:ltr;letter-spacing:0px;line-height:120%;opacity:1&quot;&gt;目录管理API&lt;/font&gt;&lt;/p&gt;&lt;/div&gt;" tags="Background" id="98">
          <mxCell style="verticalAlign=middle;align=center;overflow=width;vsdxID=97;fillColor=#FFFFFF;gradientColor=none;shape=stencil(lVJBEoIwDHxNr53QOChnxH8wQ5GOSLGC4u+lBqUFxPGWTTbdJF2G8bVIa8kEXBujT/KusqZguGdCqKqQRjV9xDBhGOfayKPRbZURrlPLtNFZ3+wLHfWB7RDwIBQAj8JX5kDkS5tmlhz4bB92giByxIEgXMLwVqkqRzgKebj1xGFFOIB16bEuvmziq498wruIw+Yf/U/iPYG7z2SoxQmcYy2y1y8/k5+sP9vHF//x630w+iVXZUl2c+tTf/Up8iYmTw==);strokeColor=#000000;spacingTop=-3;spacingBottom=-3;spacingLeft=-3;spacingRight=-3;points=[];labelBackgroundColor=none;rounded=0;html=1;whiteSpace=wrap;" parent="1" vertex="1">
            <mxGeometry x="499" y="210" width="120" height="36" as="geometry" />
          </mxCell>
        </UserObject>
        <UserObject label="&lt;div style=&quot;font-size: 1px&quot;&gt;&lt;p style=&quot;text-align:center;margin-left:0;margin-right:0;margin-top:0px;margin-bottom:0px;text-indent:0;vertical-align:middle;direction:ltr;&quot;&gt;&lt;font style=&quot;font-size:14px;font-family:0;color:#000000;direction:ltr;letter-spacing:0px;line-height:120%;opacity:1&quot;&gt;订单管理API&lt;/font&gt;&lt;/p&gt;&lt;/div&gt;" tags="Background" id="99">
          <mxCell style="verticalAlign=middle;align=center;overflow=width;vsdxID=98;fillColor=#FFFFFF;gradientColor=none;shape=stencil(lVJBEoIwDHxNr53QOChnxH8wQ5GOSLGC4u+lBqUFxPGWTTbdJF2G8bVIa8kEXBujT/KusqZguGdCqKqQRjV9xDBhGOfayKPRbZURrlPLtNFZ3+wLHfWB7RDwIBQAj8JX5kDkS5tmlhz4bB92giByxIEgXMLwVqkqRzgKebj1xGFFOIB16bEuvmziq498wruIw+Yf/U/iPYG7z2SoxQmcYy2y1y8/k5+sP9vHF//x630w+iVXZUl2c+tTf/Up8iYmTw==);strokeColor=#000000;spacingTop=-3;spacingBottom=-3;spacingLeft=-3;spacingRight=-3;points=[];labelBackgroundColor=none;rounded=0;html=1;whiteSpace=wrap;" parent="1" vertex="1">
            <mxGeometry x="499" y="253" width="120" height="36" as="geometry" />
          </mxCell>
        </UserObject>
        <UserObject label="&lt;div style=&quot;font-size: 1px&quot;&gt;&lt;p style=&quot;text-align:center;margin-left:0;margin-right:0;margin-top:0px;margin-bottom:0px;text-indent:0;vertical-align:middle;direction:ltr;&quot;&gt;&lt;font style=&quot;font-size:14px;font-family:0;color:#000000;direction:ltr;letter-spacing:0px;line-height:120%;opacity:1&quot;&gt;结算方案配置API&lt;/font&gt;&lt;/p&gt;&lt;/div&gt;" tags="Background" id="100">
          <mxCell style="verticalAlign=middle;align=center;overflow=width;vsdxID=99;fillColor=#FFFFFF;gradientColor=none;shape=stencil(lVJBEoIwDHxNr53QOChnxH8wQ5GOSLGC4u+lBqUFxPGWTTbdJF2G8bVIa8kEXBujT/KusqZguGdCqKqQRjV9xDBhGOfayKPRbZURrlPLtNFZ3+wLHfWB7RDwIBQAj8JX5kDkS5tmlhz4bB92giByxIEgXMLwVqkqRzgKebj1xGFFOIB16bEuvmziq498wruIw+Yf/U/iPYG7z2SoxQmcYy2y1y8/k5+sP9vHF//x630w+iVXZUl2c+tTf/Up8iYmTw==);strokeColor=#000000;spacingTop=-3;spacingBottom=-3;spacingLeft=-3;spacingRight=-3;points=[];labelBackgroundColor=none;rounded=0;html=1;whiteSpace=wrap;" parent="1" vertex="1">
            <mxGeometry x="499" y="297" width="120" height="36" as="geometry" />
          </mxCell>
        </UserObject>
        <UserObject label="&lt;div style=&quot;font-size: 1px&quot;&gt;&lt;p style=&quot;text-align:center;margin-left:0;margin-right:0;margin-top:0px;margin-bottom:0px;text-indent:0;vertical-align:middle;direction:ltr;&quot;&gt;&lt;font style=&quot;font-size:14px;font-family:0;color:#000000;direction:ltr;letter-spacing:0px;line-height:120%;opacity:1&quot;&gt;结算管理API&lt;/font&gt;&lt;/p&gt;&lt;/div&gt;" tags="Background" id="101">
          <mxCell style="verticalAlign=middle;align=center;overflow=width;vsdxID=100;fillColor=#FFFFFF;gradientColor=none;shape=stencil(lVJBEoIwDHxNr53QOChnxH8wQ5GOSLGC4u+lBqUFxPGWTTbdJF2G8bVIa8kEXBujT/KusqZguGdCqKqQRjV9xDBhGOfayKPRbZURrlPLtNFZ3+wLHfWB7RDwIBQAj8JX5kDkS5tmlhz4bB92giByxIEgXMLwVqkqRzgKebj1xGFFOIB16bEuvmziq498wruIw+Yf/U/iPYG7z2SoxQmcYy2y1y8/k5+sP9vHF//x630w+iVXZUl2c+tTf/Up8iYmTw==);strokeColor=#000000;spacingTop=-3;spacingBottom=-3;spacingLeft=-3;spacingRight=-3;points=[];labelBackgroundColor=none;rounded=0;html=1;whiteSpace=wrap;" parent="1" vertex="1">
            <mxGeometry x="499" y="339" width="120" height="36" as="geometry" />
          </mxCell>
        </UserObject>
        <UserObject label="&lt;div style=&quot;font-size: 1px&quot;&gt;&lt;p style=&quot;text-align:center;margin-left:0;margin-right:0;margin-top:0px;margin-bottom:0px;text-indent:0;vertical-align:middle;direction:ltr;&quot;&gt;&lt;font style=&quot;font-size:14px;font-family:0;color:#000000;direction:ltr;letter-spacing:0px;line-height:120%;opacity:1&quot;&gt;带量采购模式API&lt;/font&gt;&lt;/p&gt;&lt;/div&gt;" tags="Background" id="102">
          <mxCell style="verticalAlign=middle;align=center;overflow=width;vsdxID=101;fillColor=#FFFFFF;gradientColor=none;shape=stencil(lVJBEoIwDHxNr53QOChnxH8wQ5GOSLGC4u+lBqUFxPGWTTbdJF2G8bVIa8kEXBujT/KusqZguGdCqKqQRjV9xDBhGOfayKPRbZURrlPLtNFZ3+wLHfWB7RDwIBQAj8JX5kDkS5tmlhz4bB92giByxIEgXMLwVqkqRzgKebj1xGFFOIB16bEuvmziq498wruIw+Yf/U/iPYG7z2SoxQmcYy2y1y8/k5+sP9vHF//x630w+iVXZUl2c+tTf/Up8iYmTw==);strokeColor=#000000;spacingTop=-3;spacingBottom=-3;spacingLeft=-3;spacingRight=-3;points=[];labelBackgroundColor=none;rounded=0;html=1;whiteSpace=wrap;" parent="1" vertex="1">
            <mxGeometry x="628" y="210" width="120" height="36" as="geometry" />
          </mxCell>
        </UserObject>
        <UserObject label="&lt;div style=&quot;font-size: 1px&quot;&gt;&lt;p style=&quot;text-align:center;margin-left:0;margin-right:0;margin-top:0px;margin-bottom:0px;text-indent:0;vertical-align:middle;direction:ltr;&quot;&gt;&lt;font style=&quot;font-size:14px;font-family:0;color:#000000;direction:ltr;letter-spacing:0px;line-height:120%;opacity:1&quot;&gt;采购管理API&lt;/font&gt;&lt;/p&gt;&lt;/div&gt;" tags="Background" id="103">
          <mxCell style="verticalAlign=middle;align=center;overflow=width;vsdxID=102;fillColor=#FFFFFF;gradientColor=none;shape=stencil(lVJBEoIwDHxNr53QOChnxH8wQ5GOSLGC4u+lBqUFxPGWTTbdJF2G8bVIa8kEXBujT/KusqZguGdCqKqQRjV9xDBhGOfayKPRbZURrlPLtNFZ3+wLHfWB7RDwIBQAj8JX5kDkS5tmlhz4bB92giByxIEgXMLwVqkqRzgKebj1xGFFOIB16bEuvmziq498wruIw+Yf/U/iPYG7z2SoxQmcYy2y1y8/k5+sP9vHF//x630w+iVXZUl2c+tTf/Up8iYmTw==);strokeColor=#000000;spacingTop=-3;spacingBottom=-3;spacingLeft=-3;spacingRight=-3;points=[];labelBackgroundColor=none;rounded=0;html=1;whiteSpace=wrap;" parent="1" vertex="1">
            <mxGeometry x="628" y="253" width="120" height="36" as="geometry" />
          </mxCell>
        </UserObject>
        <UserObject label="&lt;div style=&quot;font-size: 1px&quot;&gt;&lt;p style=&quot;text-align:center;margin-left:0;margin-right:0;margin-top:0px;margin-bottom:0px;text-indent:0;vertical-align:middle;direction:ltr;&quot;&gt;&lt;font style=&quot;font-size:14px;font-family:0;color:#000000;direction:ltr;letter-spacing:0px;line-height:120%;opacity:1&quot;&gt;量化管理API&lt;/font&gt;&lt;/p&gt;&lt;/div&gt;" tags="Background" id="104">
          <mxCell style="verticalAlign=middle;align=center;overflow=width;vsdxID=103;fillColor=#FFFFFF;gradientColor=none;shape=stencil(lVJBEoIwDHxNr53QOChnxH8wQ5GOSLGC4u+lBqUFxPGWTTbdJF2G8bVIa8kEXBujT/KusqZguGdCqKqQRjV9xDBhGOfayKPRbZURrlPLtNFZ3+wLHfWB7RDwIBQAj8JX5kDkS5tmlhz4bB92giByxIEgXMLwVqkqRzgKebj1xGFFOIB16bEuvmziq498wruIw+Yf/U/iPYG7z2SoxQmcYy2y1y8/k5+sP9vHF//x630w+iVXZUl2c+tTf/Up8iYmTw==);strokeColor=#000000;spacingTop=-3;spacingBottom=-3;spacingLeft=-3;spacingRight=-3;points=[];labelBackgroundColor=none;rounded=0;html=1;whiteSpace=wrap;" parent="1" vertex="1">
            <mxGeometry x="628" y="297" width="120" height="36" as="geometry" />
          </mxCell>
        </UserObject>
        <UserObject label="&lt;div style=&quot;font-size: 1px&quot;&gt;&lt;p style=&quot;text-align:center;margin-left:0;margin-right:0;margin-top:0px;margin-bottom:0px;text-indent:0;vertical-align:middle;direction:ltr;&quot;&gt;&lt;font style=&quot;font-size:14px;font-family:0;color:#000000;direction:ltr;letter-spacing:0px;line-height:120%;opacity:1&quot;&gt;采购申请备案API&lt;/font&gt;&lt;/p&gt;&lt;/div&gt;" tags="Background" id="105">
          <mxCell style="verticalAlign=middle;align=center;overflow=width;vsdxID=104;fillColor=#FFFFFF;gradientColor=none;shape=stencil(lVJBEoIwDHxNr53QOChnxH8wQ5GOSLGC4u+lBqUFxPGWTTbdJF2G8bVIa8kEXBujT/KusqZguGdCqKqQRjV9xDBhGOfayKPRbZURrlPLtNFZ3+wLHfWB7RDwIBQAj8JX5kDkS5tmlhz4bB92giByxIEgXMLwVqkqRzgKebj1xGFFOIB16bEuvmziq498wruIw+Yf/U/iPYG7z2SoxQmcYy2y1y8/k5+sP9vHF//x630w+iVXZUl2c+tTf/Up8iYmTw==);strokeColor=#000000;spacingTop=-3;spacingBottom=-3;spacingLeft=-3;spacingRight=-3;points=[];labelBackgroundColor=none;rounded=0;html=1;whiteSpace=wrap;" parent="1" vertex="1">
            <mxGeometry x="628" y="339" width="120" height="36" as="geometry" />
          </mxCell>
        </UserObject>
        <UserObject label="&lt;div style=&quot;font-size: 1px&quot;&gt;&lt;p style=&quot;text-align:center;margin-left:0;margin-right:0;margin-top:0px;margin-bottom:0px;text-indent:0;vertical-align:middle;direction:ltr;&quot;&gt;&lt;font style=&quot;font-size:14px;font-family:0;color:#000000;direction:ltr;letter-spacing:0px;line-height:120%;opacity:1&quot;&gt;收退货管理API&lt;/font&gt;&lt;/p&gt;&lt;/div&gt;" tags="Background" id="106">
          <mxCell style="verticalAlign=middle;align=center;overflow=width;vsdxID=105;fillColor=#FFFFFF;gradientColor=none;shape=stencil(lVJBEoIwDHxNr53QOChnxH8wQ5GOSLGC4u+lBqUFxPGWTTbdJF2G8bVIa8kEXBujT/KusqZguGdCqKqQRjV9xDBhGOfayKPRbZURrlPLtNFZ3+wLHfWB7RDwIBQAj8JX5kDkS5tmlhz4bB92giByxIEgXMLwVqkqRzgKebj1xGFFOIB16bEuvmziq498wruIw+Yf/U/iPYG7z2SoxQmcYy2y1y8/k5+sP9vHF//x630w+iVXZUl2c+tTf/Up8iYmTw==);strokeColor=#000000;spacingTop=-3;spacingBottom=-3;spacingLeft=-3;spacingRight=-3;points=[];labelBackgroundColor=none;rounded=0;html=1;whiteSpace=wrap;" parent="1" vertex="1">
            <mxGeometry x="95" y="382" width="120" height="36" as="geometry" />
          </mxCell>
        </UserObject>
        <UserObject label="&lt;div style=&quot;font-size: 1px&quot;&gt;&lt;p style=&quot;text-align:center;margin-left:0;margin-right:0;margin-top:0px;margin-bottom:0px;text-indent:0;vertical-align:middle;direction:ltr;&quot;&gt;&lt;font style=&quot;font-size:14px;font-family:0;color:#000000;direction:ltr;letter-spacing:0px;line-height:120%;opacity:1&quot;&gt;带量采购询价管理API&lt;/font&gt;&lt;/p&gt;&lt;/div&gt;" tags="Background" id="107">
          <mxCell style="verticalAlign=middle;align=center;overflow=width;vsdxID=106;fillColor=#FFFFFF;gradientColor=none;shape=stencil(lVJBEoIwDHxNr53QOChnxH8wQ5GOSLGC4u+lBqUFxPGWTTbdJF2G8bVIa8kEXBujT/KusqZguGdCqKqQRjV9xDBhGOfayKPRbZURrlPLtNFZ3+wLHfWB7RDwIBQAj8JX5kDkS5tmlhz4bB92giByxIEgXMLwVqkqRzgKebj1xGFFOIB16bEuvmziq498wruIw+Yf/U/iPYG7z2SoxQmcYy2y1y8/k5+sP9vHF//x630w+iVXZUl2c+tTf/Up8iYmTw==);strokeColor=#000000;spacingTop=-3;spacingBottom=-3;spacingLeft=-3;spacingRight=-3;points=[];labelBackgroundColor=none;rounded=0;html=1;whiteSpace=wrap;" parent="1" vertex="1">
            <mxGeometry x="229" y="382" width="120" height="36" as="geometry" />
          </mxCell>
        </UserObject>
      </root>
    </mxGraphModel>
  </diagram>
</mxfile>
